<svg width="519" height="288" viewBox="0 0 519 288" fill="none" xmlns="http://www.w3.org/2000/svg">
<g filter="url(#filter0_d_5629_18834)">
<rect x="3" y="228" width="127" height="56" rx="10.2382" fill="#CCB4FE"/>
<path d="M33.5371 264L29.4258 252.076H29.3379C29.3574 252.343 29.3802 252.708 29.4062 253.17C29.4323 253.632 29.4551 254.127 29.4746 254.654C29.4941 255.182 29.5039 255.686 29.5039 256.168V264H27.375V249.723H30.666L34.6211 261.119H34.6797L38.7715 249.723H42.0527V264H39.8164V256.051C39.8164 255.615 39.8229 255.143 39.8359 254.635C39.8555 254.127 39.875 253.645 39.8945 253.189C39.9206 252.734 39.9401 252.369 39.9531 252.096H39.875L35.6074 264H33.5371ZM48.473 253.189V264H46.1781V253.189H48.473ZM47.3402 249.049C47.6918 249.049 47.9945 249.143 48.2484 249.332C48.5089 249.521 48.6391 249.846 48.6391 250.309C48.6391 250.764 48.5089 251.09 48.2484 251.285C47.9945 251.474 47.6918 251.568 47.3402 251.568C46.9757 251.568 46.6664 251.474 46.4125 251.285C46.1651 251.09 46.0414 250.764 46.0414 250.309C46.0414 249.846 46.1651 249.521 46.4125 249.332C46.6664 249.143 46.9757 249.049 47.3402 249.049ZM56.3875 262.34C56.687 262.34 56.9832 262.314 57.2762 262.262C57.5691 262.203 57.8361 262.135 58.077 262.057V263.795C57.823 263.906 57.4943 264 57.0906 264.078C56.687 264.156 56.2671 264.195 55.8309 264.195C55.2189 264.195 54.6688 264.094 54.1805 263.893C53.6922 263.684 53.3048 263.329 53.0184 262.828C52.7319 262.327 52.5887 261.633 52.5887 260.748V254.938H51.1141V253.912L52.6961 253.102L53.448 250.787H54.8934V253.189H57.9891V254.938H54.8934V260.719C54.8934 261.266 55.0301 261.673 55.3035 261.939C55.577 262.206 55.9383 262.34 56.3875 262.34ZM65.2297 264.195C64.2076 264.195 63.3221 263.997 62.5734 263.6C61.8247 263.202 61.2486 262.594 60.8449 261.773C60.4413 260.953 60.2395 259.911 60.2395 258.648C60.2395 257.333 60.4608 256.259 60.9035 255.426C61.3462 254.592 61.9582 253.977 62.7395 253.58C63.5272 253.183 64.4289 252.984 65.4445 252.984C66.0891 252.984 66.6717 253.049 67.1926 253.18C67.7199 253.303 68.1659 253.456 68.5305 253.639L67.8469 255.475C67.4497 255.312 67.0428 255.175 66.6262 255.064C66.2095 254.954 65.8091 254.898 65.425 254.898C64.7935 254.898 64.2661 255.038 63.843 255.318C63.4263 255.598 63.1138 256.015 62.9055 256.568C62.7036 257.122 62.6027 257.809 62.6027 258.629C62.6027 259.423 62.7069 260.094 62.9152 260.641C63.1236 261.181 63.4328 261.591 63.843 261.871C64.2531 262.145 64.7577 262.281 65.3566 262.281C65.9491 262.281 66.4797 262.21 66.9484 262.066C67.4172 261.923 67.8599 261.738 68.2766 261.51V263.502C67.8664 263.736 67.427 263.909 66.9582 264.02C66.4895 264.137 65.9133 264.195 65.2297 264.195ZM73.7105 248.805V252.623C73.7105 253.02 73.6975 253.408 73.6715 253.785C73.652 254.163 73.6292 254.456 73.6031 254.664H73.7301C73.9579 254.286 74.2379 253.977 74.5699 253.736C74.902 253.489 75.273 253.303 75.6832 253.18C76.0999 253.056 76.5426 252.994 77.0113 252.994C77.8382 252.994 78.5413 253.134 79.1207 253.414C79.7001 253.688 80.1428 254.114 80.4488 254.693C80.7613 255.273 80.9176 256.025 80.9176 256.949V264H78.6227V257.379C78.6227 256.539 78.4501 255.911 78.1051 255.494C77.76 255.071 77.2262 254.859 76.5035 254.859C75.8069 254.859 75.2535 255.006 74.8434 255.299C74.4397 255.585 74.15 256.012 73.9742 256.578C73.7984 257.138 73.7105 257.822 73.7105 258.629V264H71.4156V248.805H73.7105ZM89.0371 252.984C90.0007 252.984 90.8275 253.183 91.5176 253.58C92.2077 253.977 92.7383 254.54 93.1094 255.27C93.4805 255.999 93.666 256.871 93.666 257.887V259.117H86.4492C86.4753 260.165 86.7552 260.973 87.2891 261.539C87.8294 262.105 88.5846 262.389 89.5547 262.389C90.2448 262.389 90.8633 262.324 91.4102 262.193C91.9635 262.057 92.5332 261.858 93.1191 261.598V263.463C92.5788 263.717 92.0286 263.902 91.4688 264.02C90.9089 264.137 90.2383 264.195 89.457 264.195C88.3958 264.195 87.4616 263.99 86.6543 263.58C85.8535 263.163 85.2253 262.545 84.7695 261.725C84.3203 260.904 84.0957 259.885 84.0957 258.668C84.0957 257.457 84.3008 256.428 84.7109 255.582C85.1211 254.736 85.6973 254.091 86.4395 253.648C87.1816 253.206 88.0475 252.984 89.0371 252.984ZM89.0371 254.713C88.3145 254.713 87.7285 254.947 87.2793 255.416C86.8366 255.885 86.5762 256.572 86.498 257.477H91.4199C91.4134 256.936 91.3223 256.458 91.1465 256.041C90.9772 255.624 90.7168 255.299 90.3652 255.064C90.0202 254.83 89.5775 254.713 89.0371 254.713ZM99.1586 264H96.8539V248.805H99.1586V264ZM105.345 264H103.04V248.805H105.345V264Z" fill="white"/>
</g>
<g filter="url(#filter1_d_5629_18834)">
<rect x="392" y="25" width="124" height="56" rx="10.2382" fill="#814AEB"/>
<path d="M426.961 46.7227L421.971 61H419.49L414.5 46.7227H416.902L419.91 55.668C420.001 55.9284 420.099 56.2441 420.203 56.6152C420.314 56.9863 420.415 57.3607 420.506 57.7383C420.604 58.1159 420.678 58.4512 420.73 58.7441C420.783 58.4512 420.854 58.1159 420.945 57.7383C421.043 57.3607 421.144 56.9863 421.248 56.6152C421.352 56.2441 421.45 55.9251 421.541 55.6582L424.559 46.7227H426.961ZM431.496 50.1895V61H429.202V50.1895H431.496ZM430.364 46.0488C430.715 46.0488 431.018 46.1432 431.272 46.332C431.532 46.5208 431.663 46.8464 431.663 47.3086C431.663 47.7643 431.532 48.0898 431.272 48.2852C431.018 48.474 430.715 48.5684 430.364 48.5684C429.999 48.5684 429.69 48.474 429.436 48.2852C429.189 48.0898 429.065 47.7643 429.065 47.3086C429.065 46.8464 429.189 46.5208 429.436 46.332C429.69 46.1432 429.999 46.0488 430.364 46.0488ZM439.743 61.1953C438.721 61.1953 437.835 60.9967 437.087 60.5996C436.338 60.2025 435.762 59.5938 435.358 58.7734C434.955 57.9531 434.753 56.9115 434.753 55.6484C434.753 54.3333 434.974 53.2591 435.417 52.4258C435.86 51.5924 436.471 50.9772 437.253 50.5801C438.04 50.1829 438.942 49.9844 439.958 49.9844C440.602 49.9844 441.185 50.0495 441.706 50.1797C442.233 50.3034 442.679 50.4564 443.044 50.6387L442.36 52.4746C441.963 52.3118 441.556 52.1751 441.139 52.0645C440.723 51.9538 440.322 51.8984 439.938 51.8984C439.307 51.8984 438.779 52.0384 438.356 52.3184C437.94 52.5983 437.627 53.015 437.419 53.5684C437.217 54.1217 437.116 54.8086 437.116 55.6289C437.116 56.4232 437.22 57.0938 437.429 57.6406C437.637 58.181 437.946 58.5911 438.356 58.8711C438.766 59.1445 439.271 59.2812 439.87 59.2812C440.462 59.2812 440.993 59.2096 441.462 59.0664C441.93 58.9232 442.373 58.7376 442.79 58.5098V60.502C442.38 60.7363 441.94 60.9089 441.471 61.0195C441.003 61.1367 440.427 61.1953 439.743 61.1953ZM449.952 59.3398C450.252 59.3398 450.548 59.3138 450.841 59.2617C451.134 59.2031 451.401 59.1348 451.642 59.0566V60.7949C451.388 60.9056 451.059 61 450.655 61.0781C450.252 61.1562 449.832 61.1953 449.396 61.1953C448.784 61.1953 448.234 61.0944 447.745 60.8926C447.257 60.6842 446.87 60.3294 446.583 59.8281C446.297 59.3268 446.154 58.6335 446.154 57.748V51.9375H444.679V50.9121L446.261 50.1016L447.013 47.7871H448.458V50.1895H451.554V51.9375H448.458V57.7188C448.458 58.2656 448.595 58.6725 448.868 58.9395C449.142 59.2064 449.503 59.3398 449.952 59.3398ZM464.009 55.5703C464.009 56.4688 463.892 57.2663 463.658 57.9629C463.423 58.6595 463.082 59.2487 462.632 59.7305C462.183 60.2057 461.643 60.5703 461.011 60.8242C460.38 61.0716 459.667 61.1953 458.873 61.1953C458.13 61.1953 457.45 61.0716 456.832 60.8242C456.213 60.5703 455.676 60.2057 455.22 59.7305C454.771 59.2487 454.423 58.6595 454.175 57.9629C453.928 57.2663 453.804 56.4688 453.804 55.5703C453.804 54.3789 454.009 53.3698 454.42 52.543C454.836 51.7096 455.429 51.0749 456.197 50.6387C456.965 50.2025 457.88 49.9844 458.941 49.9844C459.937 49.9844 460.816 50.2025 461.578 50.6387C462.339 51.0749 462.935 51.7096 463.365 52.543C463.795 53.3763 464.009 54.3854 464.009 55.5703ZM456.168 55.5703C456.168 56.3581 456.262 57.0319 456.451 57.5918C456.646 58.1517 456.946 58.5814 457.349 58.8809C457.753 59.1738 458.274 59.3203 458.912 59.3203C459.55 59.3203 460.071 59.1738 460.474 58.8809C460.878 58.5814 461.174 58.1517 461.363 57.5918C461.552 57.0319 461.646 56.3581 461.646 55.5703C461.646 54.7826 461.552 54.1152 461.363 53.5684C461.174 53.015 460.878 52.5951 460.474 52.3086C460.071 52.0156 459.546 51.8691 458.902 51.8691C457.951 51.8691 457.258 52.1882 456.822 52.8262C456.386 53.4642 456.168 54.3789 456.168 55.5703ZM472.725 49.9844C472.907 49.9844 473.105 49.9941 473.32 50.0137C473.535 50.0332 473.721 50.0592 473.877 50.0918L473.662 52.2402C473.525 52.2012 473.356 52.1719 473.154 52.1523C472.959 52.1328 472.783 52.123 472.627 52.123C472.217 52.123 471.826 52.1914 471.455 52.3281C471.084 52.4583 470.755 52.6602 470.469 52.9336C470.182 53.2005 469.958 53.5358 469.795 53.9395C469.632 54.3431 469.551 54.8118 469.551 55.3457V61H467.246V50.1895H469.043L469.355 52.0938H469.463C469.678 51.7096 469.945 51.3581 470.264 51.0391C470.583 50.7201 470.947 50.4661 471.357 50.2773C471.774 50.082 472.23 49.9844 472.725 49.9844ZM478.774 50.1895V61H476.479V50.1895H478.774ZM477.641 46.0488C477.993 46.0488 478.295 46.1432 478.549 46.332C478.81 46.5208 478.94 46.8464 478.94 47.3086C478.94 47.7643 478.81 48.0898 478.549 48.2852C478.295 48.474 477.993 48.5684 477.641 48.5684C477.276 48.5684 476.967 48.474 476.713 48.2852C476.466 48.0898 476.342 47.7643 476.342 47.3086C476.342 46.8464 476.466 46.5208 476.713 46.332C476.967 46.1432 477.276 46.0488 477.641 46.0488ZM486.903 49.9844C488.27 49.9844 489.302 50.2871 489.999 50.8926C490.702 51.498 491.054 52.4421 491.054 53.7246V61H489.423L488.983 59.4668H488.905C488.599 59.8574 488.283 60.1797 487.958 60.4336C487.632 60.6875 487.255 60.8763 486.825 61C486.402 61.1302 485.884 61.1953 485.272 61.1953C484.628 61.1953 484.052 61.0781 483.544 60.8438C483.036 60.6029 482.636 60.2383 482.343 59.75C482.05 59.2617 481.903 58.6432 481.903 57.8945C481.903 56.7812 482.317 55.9447 483.143 55.3848C483.977 54.8249 485.233 54.5156 486.913 54.457L488.788 54.3887V53.8223C488.788 53.0736 488.612 52.5397 488.261 52.2207C487.915 51.9017 487.427 51.7422 486.796 51.7422C486.255 51.7422 485.731 51.8203 485.223 51.9766C484.716 52.1328 484.221 52.3249 483.739 52.5527L482.997 50.9316C483.524 50.6517 484.123 50.4238 484.794 50.248C485.471 50.0723 486.174 49.9844 486.903 49.9844ZM488.778 55.834L487.382 55.8828C486.236 55.9219 485.432 56.1172 484.97 56.4688C484.507 56.8203 484.276 57.3021 484.276 57.9141C484.276 58.4479 484.436 58.8385 484.755 59.0859C485.074 59.3268 485.494 59.4473 486.014 59.4473C486.809 59.4473 487.466 59.2227 487.987 58.7734C488.514 58.3177 488.778 57.6504 488.778 56.7715V55.834Z" fill="white"/>
</g>
<g filter="url(#filter2_d_5629_18834)">
<rect x="162" y="86" width="174" height="69" rx="12.565" fill="#7533EA"/>
<path d="M197.959 116.01C197.275 116.01 196.663 116.133 196.123 116.381C195.589 116.628 195.137 116.986 194.766 117.455C194.395 117.917 194.111 118.48 193.916 119.145C193.721 119.802 193.623 120.544 193.623 121.371C193.623 122.478 193.779 123.432 194.092 124.232C194.404 125.027 194.88 125.639 195.518 126.068C196.156 126.492 196.963 126.703 197.939 126.703C198.545 126.703 199.134 126.645 199.707 126.527C200.28 126.41 200.872 126.251 201.484 126.049V128.041C200.905 128.269 200.319 128.435 199.727 128.539C199.134 128.643 198.451 128.695 197.676 128.695C196.217 128.695 195.007 128.393 194.043 127.787C193.086 127.182 192.37 126.329 191.895 125.229C191.426 124.128 191.191 122.839 191.191 121.361C191.191 120.281 191.341 119.291 191.641 118.393C191.94 117.494 192.376 116.719 192.949 116.068C193.522 115.411 194.229 114.906 195.068 114.555C195.915 114.197 196.882 114.018 197.969 114.018C198.685 114.018 199.388 114.099 200.078 114.262C200.775 114.418 201.419 114.643 202.012 114.936L201.191 116.869C200.697 116.635 200.179 116.433 199.639 116.264C199.098 116.094 198.538 116.01 197.959 116.01ZM214.487 123.07C214.487 123.969 214.37 124.766 214.135 125.463C213.901 126.16 213.559 126.749 213.11 127.23C212.661 127.706 212.12 128.07 211.489 128.324C210.857 128.572 210.144 128.695 209.35 128.695C208.608 128.695 207.927 128.572 207.309 128.324C206.69 128.07 206.153 127.706 205.698 127.23C205.248 126.749 204.9 126.16 204.653 125.463C204.405 124.766 204.282 123.969 204.282 123.07C204.282 121.879 204.487 120.87 204.897 120.043C205.314 119.21 205.906 118.575 206.674 118.139C207.442 117.702 208.357 117.484 209.418 117.484C210.414 117.484 211.293 117.702 212.055 118.139C212.817 118.575 213.413 119.21 213.842 120.043C214.272 120.876 214.487 121.885 214.487 123.07ZM206.645 123.07C206.645 123.858 206.739 124.532 206.928 125.092C207.123 125.652 207.423 126.081 207.827 126.381C208.23 126.674 208.751 126.82 209.389 126.82C210.027 126.82 210.548 126.674 210.952 126.381C211.355 126.081 211.651 125.652 211.84 125.092C212.029 124.532 212.123 123.858 212.123 123.07C212.123 122.283 212.029 121.615 211.84 121.068C211.651 120.515 211.355 120.095 210.952 119.809C210.548 119.516 210.024 119.369 209.379 119.369C208.429 119.369 207.735 119.688 207.299 120.326C206.863 120.964 206.645 121.879 206.645 123.07ZM220.028 128.5H217.723V113.305H220.028V128.5ZM226.214 128.5H223.909V113.305H226.214V128.5ZM234.334 117.484C235.701 117.484 236.733 117.787 237.429 118.393C238.132 118.998 238.484 119.942 238.484 121.225V128.5H236.853L236.414 126.967H236.336C236.03 127.357 235.714 127.68 235.388 127.934C235.063 128.188 234.685 128.376 234.255 128.5C233.832 128.63 233.315 128.695 232.703 128.695C232.058 128.695 231.482 128.578 230.974 128.344C230.466 128.103 230.066 127.738 229.773 127.25C229.48 126.762 229.334 126.143 229.334 125.395C229.334 124.281 229.747 123.445 230.574 122.885C231.407 122.325 232.664 122.016 234.343 121.957L236.218 121.889V121.322C236.218 120.574 236.043 120.04 235.691 119.721C235.346 119.402 234.858 119.242 234.226 119.242C233.686 119.242 233.162 119.32 232.654 119.477C232.146 119.633 231.651 119.825 231.17 120.053L230.427 118.432C230.955 118.152 231.554 117.924 232.224 117.748C232.901 117.572 233.604 117.484 234.334 117.484ZM236.209 123.334L234.812 123.383C233.666 123.422 232.862 123.617 232.4 123.969C231.938 124.32 231.707 124.802 231.707 125.414C231.707 125.948 231.866 126.339 232.185 126.586C232.504 126.827 232.924 126.947 233.445 126.947C234.239 126.947 234.897 126.723 235.418 126.273C235.945 125.818 236.209 125.15 236.209 124.271V123.334ZM244.592 113.305V116.967C244.592 117.39 244.579 117.807 244.553 118.217C244.533 118.62 244.514 118.936 244.494 119.164H244.592C244.885 118.695 245.292 118.301 245.812 117.982C246.34 117.657 247.014 117.494 247.834 117.494C249.117 117.494 250.148 117.966 250.93 118.91C251.711 119.848 252.102 121.238 252.102 123.08C252.102 124.304 251.923 125.333 251.564 126.166C251.206 126.999 250.702 127.631 250.051 128.061C249.406 128.484 248.648 128.695 247.775 128.695C246.955 128.695 246.291 128.546 245.783 128.246C245.282 127.94 244.888 127.585 244.602 127.182H244.436L244.016 128.5H242.297V113.305H244.592ZM247.229 119.359C246.577 119.359 246.06 119.49 245.676 119.75C245.298 120.01 245.025 120.401 244.855 120.922C244.686 121.436 244.598 122.09 244.592 122.885V123.09C244.592 124.294 244.781 125.215 245.158 125.854C245.542 126.492 246.239 126.811 247.248 126.811C248.049 126.811 248.664 126.488 249.094 125.844C249.523 125.193 249.738 124.262 249.738 123.051C249.738 121.827 249.523 120.906 249.094 120.287C248.671 119.669 248.049 119.359 247.229 119.359ZM264.928 123.07C264.928 123.969 264.811 124.766 264.577 125.463C264.342 126.16 264 126.749 263.551 127.23C263.102 127.706 262.562 128.07 261.93 128.324C261.299 128.572 260.586 128.695 259.791 128.695C259.049 128.695 258.369 128.572 257.75 128.324C257.132 128.07 256.595 127.706 256.139 127.23C255.69 126.749 255.342 126.16 255.094 125.463C254.847 124.766 254.723 123.969 254.723 123.07C254.723 121.879 254.928 120.87 255.338 120.043C255.755 119.21 256.347 118.575 257.116 118.139C257.884 117.702 258.799 117.484 259.86 117.484C260.856 117.484 261.735 117.702 262.496 118.139C263.258 118.575 263.854 119.21 264.284 120.043C264.713 120.876 264.928 121.885 264.928 123.07ZM257.086 123.07C257.086 123.858 257.181 124.532 257.37 125.092C257.565 125.652 257.864 126.081 258.268 126.381C258.672 126.674 259.192 126.82 259.83 126.82C260.468 126.82 260.989 126.674 261.393 126.381C261.797 126.081 262.093 125.652 262.282 125.092C262.47 124.532 262.565 123.858 262.565 123.07C262.565 122.283 262.47 121.615 262.282 121.068C262.093 120.515 261.797 120.095 261.393 119.809C260.989 119.516 260.465 119.369 259.821 119.369C258.87 119.369 258.177 119.688 257.741 120.326C257.304 120.964 257.086 121.879 257.086 123.07ZM273.643 117.484C273.826 117.484 274.024 117.494 274.239 117.514C274.454 117.533 274.639 117.559 274.796 117.592L274.581 119.74C274.444 119.701 274.275 119.672 274.073 119.652C273.878 119.633 273.702 119.623 273.546 119.623C273.136 119.623 272.745 119.691 272.374 119.828C272.003 119.958 271.674 120.16 271.387 120.434C271.101 120.701 270.876 121.036 270.714 121.439C270.551 121.843 270.47 122.312 270.47 122.846V128.5H268.165V117.689H269.962L270.274 119.594H270.382C270.596 119.21 270.863 118.858 271.182 118.539C271.501 118.22 271.866 117.966 272.276 117.777C272.693 117.582 273.149 117.484 273.643 117.484ZM281.636 117.484C283.003 117.484 284.035 117.787 284.732 118.393C285.435 118.998 285.786 119.942 285.786 121.225V128.5H284.155L283.716 126.967H283.638C283.332 127.357 283.016 127.68 282.691 127.934C282.365 128.188 281.988 128.376 281.558 128.5C281.135 128.63 280.617 128.695 280.005 128.695C279.361 128.695 278.784 128.578 278.277 128.344C277.769 128.103 277.368 127.738 277.075 127.25C276.782 126.762 276.636 126.143 276.636 125.395C276.636 124.281 277.049 123.445 277.876 122.885C278.71 122.325 279.966 122.016 281.646 121.957L283.521 121.889V121.322C283.521 120.574 283.345 120.04 282.993 119.721C282.648 119.402 282.16 119.242 281.529 119.242C280.988 119.242 280.464 119.32 279.956 119.477C279.448 119.633 278.954 119.825 278.472 120.053L277.73 118.432C278.257 118.152 278.856 117.924 279.527 117.748C280.204 117.572 280.907 117.484 281.636 117.484ZM283.511 123.334L282.114 123.383C280.969 123.422 280.165 123.617 279.702 123.969C279.24 124.32 279.009 124.802 279.009 125.414C279.009 125.948 279.168 126.339 279.488 126.586C279.807 126.827 280.226 126.947 280.747 126.947C281.542 126.947 282.199 126.723 282.72 126.273C283.247 125.818 283.511 125.15 283.511 124.271V123.334ZM293.623 126.84C293.922 126.84 294.218 126.814 294.511 126.762C294.804 126.703 295.071 126.635 295.312 126.557V128.295C295.058 128.406 294.729 128.5 294.326 128.578C293.922 128.656 293.502 128.695 293.066 128.695C292.454 128.695 291.904 128.594 291.416 128.393C290.927 128.184 290.54 127.829 290.254 127.328C289.967 126.827 289.824 126.133 289.824 125.248V119.438H288.349V118.412L289.931 117.602L290.683 115.287H292.129V117.689H295.224V119.438H292.129V125.219C292.129 125.766 292.265 126.173 292.539 126.439C292.812 126.706 293.173 126.84 293.623 126.84ZM302.416 117.484C303.38 117.484 304.206 117.683 304.896 118.08C305.587 118.477 306.117 119.04 306.488 119.77C306.859 120.499 307.045 121.371 307.045 122.387V123.617H299.828C299.854 124.665 300.134 125.473 300.668 126.039C301.208 126.605 301.964 126.889 302.934 126.889C303.624 126.889 304.242 126.824 304.789 126.693C305.342 126.557 305.912 126.358 306.498 126.098V127.963C305.958 128.217 305.408 128.402 304.848 128.52C304.288 128.637 303.617 128.695 302.836 128.695C301.775 128.695 300.84 128.49 300.033 128.08C299.232 127.663 298.604 127.045 298.148 126.225C297.699 125.404 297.475 124.385 297.475 123.168C297.475 121.957 297.68 120.928 298.09 120.082C298.5 119.236 299.076 118.591 299.818 118.148C300.561 117.706 301.426 117.484 302.416 117.484ZM302.416 119.213C301.693 119.213 301.107 119.447 300.658 119.916C300.215 120.385 299.955 121.072 299.877 121.977H304.799C304.792 121.436 304.701 120.958 304.525 120.541C304.356 120.124 304.096 119.799 303.744 119.564C303.399 119.33 302.956 119.213 302.416 119.213Z" fill="white"/>
</g>
<g clip-path="url(#clip0_5629_18834)">
<g filter="url(#filter3_d_5629_18834)">
<path d="M268.224 157.478C267.866 157.018 267.418 156.083 266.637 154.919C266.189 154.279 265.088 153.063 264.756 152.436C264.516 152.055 264.446 151.591 264.564 151.156C264.765 150.33 265.549 149.782 266.394 149.877C267.047 150.008 267.648 150.328 268.121 150.798C268.452 151.109 268.756 151.447 269.03 151.809C269.235 152.065 269.286 152.167 269.516 152.462C269.747 152.756 269.9 153.05 269.785 152.615C269.696 151.975 269.542 150.9 269.324 149.941C269.158 149.211 269.12 149.096 268.966 148.546C268.813 147.995 268.723 147.535 268.557 146.907C268.404 146.291 268.285 145.668 268.198 145.039C268.037 144.235 268.154 143.4 268.531 142.671C268.978 142.251 269.634 142.14 270.195 142.39C270.759 142.806 271.179 143.388 271.398 144.054C271.733 144.873 271.957 145.734 272.063 146.613C272.268 147.893 272.665 149.761 272.677 150.145C272.677 149.672 272.588 148.674 272.677 148.226C272.766 147.759 273.091 147.371 273.535 147.202C273.916 147.085 274.319 147.059 274.712 147.125C275.109 147.208 275.461 147.436 275.698 147.765C275.994 148.512 276.159 149.304 276.184 150.107C276.218 149.404 276.339 148.708 276.542 148.034C276.756 147.732 277.069 147.515 277.425 147.419C277.848 147.342 278.282 147.342 278.705 147.419C279.052 147.535 279.356 147.754 279.575 148.046C279.846 148.725 280.01 149.442 280.062 150.171C280.062 150.35 280.151 149.672 280.433 149.224C280.579 148.79 280.946 148.466 281.395 148.376C281.845 148.285 282.308 148.441 282.611 148.785C282.914 149.129 283.011 149.609 282.864 150.043C282.864 150.875 282.864 150.836 282.864 151.399C282.864 151.963 282.864 152.462 282.864 152.935C282.818 153.684 282.715 154.428 282.557 155.162C282.335 155.811 282.025 156.427 281.636 156.992C281.014 157.683 280.501 158.464 280.113 159.308C280.017 159.728 279.974 160.158 279.985 160.588C279.984 160.986 280.035 161.382 280.139 161.766C279.615 161.821 279.088 161.821 278.564 161.766C278.065 161.689 277.451 160.691 277.285 160.383C277.202 160.219 277.034 160.114 276.849 160.114C276.665 160.114 276.497 160.219 276.414 160.383C276.133 160.87 275.506 161.753 275.071 161.804C274.213 161.906 272.447 161.804 271.052 161.804C271.052 161.804 271.282 160.524 270.758 160.064C270.233 159.603 269.696 159.065 269.299 158.707L268.224 157.478Z" fill="white"/>
<path fill-rule="evenodd" clip-rule="evenodd" d="M268.224 157.478C267.866 157.018 267.418 156.083 266.637 154.919C266.189 154.279 265.088 153.063 264.756 152.436C264.516 152.055 264.446 151.591 264.564 151.156C264.765 150.33 265.549 149.782 266.394 149.877C267.047 150.008 267.648 150.328 268.121 150.798C268.452 151.109 268.756 151.447 269.03 151.809C269.235 152.065 269.286 152.167 269.516 152.462C269.747 152.756 269.9 153.05 269.785 152.615C269.696 151.975 269.542 150.9 269.324 149.941C269.158 149.211 269.12 149.096 268.966 148.546C268.813 147.995 268.723 147.535 268.557 146.907C268.404 146.291 268.285 145.668 268.198 145.039C268.037 144.235 268.154 143.4 268.531 142.671C268.978 142.251 269.634 142.14 270.195 142.39C270.759 142.806 271.179 143.388 271.398 144.054C271.733 144.873 271.957 145.734 272.063 146.613C272.268 147.893 272.665 149.761 272.677 150.145C272.677 149.672 272.588 148.674 272.677 148.226C272.766 147.759 273.091 147.371 273.535 147.202C273.916 147.085 274.319 147.059 274.712 147.125C275.109 147.208 275.461 147.436 275.698 147.765C275.994 148.512 276.159 149.304 276.184 150.107C276.218 149.404 276.339 148.708 276.542 148.034C276.756 147.732 277.069 147.515 277.425 147.419C277.848 147.342 278.282 147.342 278.705 147.419C279.052 147.535 279.356 147.754 279.575 148.046C279.846 148.725 280.01 149.442 280.062 150.171C280.062 150.35 280.151 149.672 280.433 149.224C280.579 148.79 280.946 148.466 281.395 148.376C281.845 148.285 282.308 148.441 282.611 148.785C282.914 149.129 283.011 149.609 282.864 150.043C282.864 150.875 282.864 150.836 282.864 151.399C282.864 151.963 282.864 152.462 282.864 152.935C282.818 153.684 282.715 154.428 282.557 155.162C282.335 155.811 282.025 156.427 281.636 156.992C281.014 157.683 280.501 158.464 280.113 159.308C280.017 159.728 279.974 160.158 279.985 160.588C279.984 160.986 280.035 161.382 280.139 161.766C279.615 161.821 279.088 161.821 278.564 161.766C278.065 161.689 277.451 160.691 277.285 160.383C277.202 160.219 277.034 160.114 276.849 160.114C276.665 160.114 276.497 160.219 276.414 160.383C276.133 160.87 275.506 161.753 275.071 161.804C274.213 161.906 272.447 161.804 271.052 161.804C271.052 161.804 271.282 160.524 270.758 160.064C270.233 159.603 269.696 159.065 269.299 158.707L268.224 157.478Z" stroke="#171717" stroke-width="0.959829" stroke-linecap="round" stroke-linejoin="round"/>
<path d="M279.077 158.178V153.76C279.077 153.496 278.862 153.281 278.597 153.281C278.332 153.281 278.117 153.496 278.117 153.76V158.178C278.117 158.442 278.332 158.656 278.597 158.656C278.862 158.656 279.077 158.442 279.077 158.178Z" fill="#171717"/>
<path d="M276.54 158.176L276.515 153.756C276.513 153.492 276.297 153.28 276.032 153.281C275.767 153.283 275.553 153.498 275.555 153.762L275.58 158.181C275.582 158.445 275.798 158.658 276.063 158.656C276.328 158.655 276.542 158.44 276.54 158.176Z" fill="#171717"/>
<path d="M273 153.766L273.026 158.177C273.027 158.443 273.243 158.658 273.508 158.656C273.773 158.655 273.987 158.438 273.985 158.171L273.96 153.761C273.958 153.494 273.742 153.28 273.477 153.281C273.212 153.283 272.998 153.5 273 153.766Z" fill="#171717"/>
</g>
</g>
<g filter="url(#filter4_d_5629_18834)">
<rect x="350" y="228" width="98" height="49" rx="8.87994" fill="#E2D5FF"/>
<path d="M381.987 259H379.562L375.562 253.164L374.297 254.192V259H372.188V246.15H374.297V252.294C374.555 251.978 374.815 251.661 375.079 251.345C375.343 251.028 375.606 250.712 375.87 250.396L379.491 246.15H381.873L377.074 251.775L381.987 259ZM388.403 249.086C388.567 249.086 388.746 249.095 388.939 249.112C389.133 249.13 389.3 249.153 389.44 249.183L389.247 251.116C389.124 251.081 388.972 251.055 388.79 251.037C388.614 251.02 388.456 251.011 388.315 251.011C387.946 251.011 387.595 251.072 387.261 251.195C386.927 251.312 386.631 251.494 386.373 251.74C386.115 251.98 385.913 252.282 385.767 252.646C385.62 253.009 385.547 253.431 385.547 253.911V259H383.473V249.271H385.09L385.371 250.984H385.468C385.661 250.639 385.901 250.322 386.188 250.035C386.476 249.748 386.804 249.52 387.173 249.35C387.548 249.174 387.958 249.086 388.403 249.086ZM393.308 249.271V259H391.242V249.271H393.308ZM392.288 245.544C392.604 245.544 392.877 245.629 393.105 245.799C393.34 245.969 393.457 246.262 393.457 246.678C393.457 247.088 393.34 247.381 393.105 247.557C392.877 247.727 392.604 247.812 392.288 247.812C391.96 247.812 391.682 247.727 391.453 247.557C391.23 247.381 391.119 247.088 391.119 246.678C391.119 246.262 391.23 245.969 391.453 245.799C391.682 245.629 391.96 245.544 392.288 245.544ZM402.809 256.223C402.809 256.861 402.653 257.4 402.343 257.84C402.032 258.279 401.578 258.613 400.98 258.842C400.389 259.064 399.662 259.176 398.801 259.176C398.121 259.176 397.535 259.126 397.043 259.026C396.557 258.933 396.097 258.786 395.663 258.587V256.803C396.126 257.02 396.645 257.207 397.219 257.365C397.799 257.523 398.347 257.603 398.862 257.603C399.542 257.603 400.031 257.497 400.33 257.286C400.629 257.069 400.778 256.782 400.778 256.425C400.778 256.214 400.717 256.026 400.594 255.862C400.477 255.692 400.254 255.52 399.926 255.344C399.604 255.162 399.129 254.945 398.502 254.693C397.887 254.447 397.368 254.201 396.946 253.955C396.524 253.709 396.205 253.413 395.988 253.067C395.771 252.716 395.663 252.268 395.663 251.723C395.663 250.861 396.003 250.208 396.683 249.763C397.368 249.312 398.273 249.086 399.398 249.086C399.996 249.086 400.559 249.147 401.086 249.271C401.619 249.388 402.141 249.561 402.65 249.789L402 251.345C401.561 251.151 401.118 250.993 400.673 250.87C400.233 250.741 399.785 250.677 399.328 250.677C398.795 250.677 398.388 250.759 398.106 250.923C397.831 251.087 397.693 251.321 397.693 251.626C397.693 251.854 397.761 252.048 397.896 252.206C398.03 252.364 398.262 252.522 398.59 252.681C398.924 252.839 399.387 253.035 399.979 253.27C400.559 253.492 401.06 253.727 401.481 253.973C401.909 254.213 402.237 254.509 402.466 254.86C402.694 255.212 402.809 255.666 402.809 256.223ZM408.662 257.506C408.932 257.506 409.198 257.482 409.462 257.436C409.726 257.383 409.966 257.321 410.183 257.251V258.815C409.954 258.915 409.658 259 409.295 259.07C408.932 259.141 408.554 259.176 408.161 259.176C407.61 259.176 407.115 259.085 406.676 258.903C406.236 258.716 405.888 258.396 405.63 257.945C405.372 257.494 405.243 256.87 405.243 256.073V250.844H403.916V249.921L405.34 249.191L406.017 247.108H407.317V249.271H410.104V250.844H407.317V256.047C407.317 256.539 407.44 256.905 407.687 257.146C407.933 257.386 408.258 257.506 408.662 257.506ZM414.226 249.271V259H412.16V249.271H414.226ZM413.206 245.544C413.522 245.544 413.795 245.629 414.023 245.799C414.258 245.969 414.375 246.262 414.375 246.678C414.375 247.088 414.258 247.381 414.023 247.557C413.795 247.727 413.522 247.812 413.206 247.812C412.878 247.812 412.6 247.727 412.371 247.557C412.148 247.381 412.037 247.088 412.037 246.678C412.037 246.262 412.148 245.969 412.371 245.799C412.6 245.629 412.878 245.544 413.206 245.544ZM422.259 249.086C423.354 249.086 424.207 249.37 424.816 249.938C425.432 250.501 425.739 251.406 425.739 252.654V259H423.674V253.041C423.674 252.285 423.519 251.72 423.208 251.345C422.897 250.964 422.417 250.773 421.767 250.773C420.823 250.773 420.167 251.063 419.798 251.644C419.435 252.224 419.253 253.064 419.253 254.166V259H417.188V249.271H418.796L419.086 250.589H419.2C419.411 250.249 419.672 249.971 419.982 249.754C420.299 249.531 420.65 249.364 421.037 249.253C421.43 249.142 421.837 249.086 422.259 249.086Z" fill="white"/>
</g>
<g filter="url(#filter5_d_5629_18834)">
<rect x="25" y="2" width="94" height="47" rx="8.56745" fill="#E2D5FF"/>
<path d="M52.6504 32L51.3936 28.4316H46.4805L45.2236 32H43L47.7812 19.0977H50.1191L54.8916 32H52.6504ZM50.8486 26.6211L49.627 23.1055C49.5801 22.9531 49.5127 22.7393 49.4248 22.4639C49.3369 22.1826 49.249 21.8984 49.1611 21.6113C49.0732 21.3184 49 21.0723 48.9414 20.873C48.8828 21.1133 48.8096 21.3828 48.7217 21.6816C48.6396 21.9746 48.5576 22.25 48.4756 22.5078C48.3994 22.7656 48.3408 22.9648 48.2998 23.1055L47.0693 26.6211H50.8486ZM61.3076 22.0859C61.4717 22.0859 61.6504 22.0947 61.8438 22.1123C62.0371 22.1299 62.2041 22.1533 62.3447 22.1826L62.1514 24.1162C62.0283 24.0811 61.876 24.0547 61.6943 24.0371C61.5186 24.0195 61.3604 24.0107 61.2197 24.0107C60.8506 24.0107 60.499 24.0723 60.165 24.1953C59.8311 24.3125 59.5352 24.4941 59.2773 24.7402C59.0195 24.9805 58.8174 25.2822 58.6709 25.6455C58.5244 26.0088 58.4512 26.4307 58.4512 26.9111V32H56.377V22.2705H57.9941L58.2754 23.9844H58.3721C58.5654 23.6387 58.8057 23.3223 59.0928 23.0352C59.3799 22.748 59.708 22.5195 60.0771 22.3496C60.4521 22.1738 60.8623 22.0859 61.3076 22.0859ZM67.7676 30.5059C68.0371 30.5059 68.3037 30.4824 68.5674 30.4355C68.8311 30.3828 69.0713 30.3213 69.2881 30.251V31.8154C69.0596 31.915 68.7637 32 68.4004 32.0703C68.0371 32.1406 67.6592 32.1758 67.2666 32.1758C66.7158 32.1758 66.2207 32.085 65.7812 31.9033C65.3418 31.7158 64.9932 31.3965 64.7354 30.9453C64.4775 30.4941 64.3486 29.8701 64.3486 29.0732V23.8438H63.0215V22.9209L64.4453 22.1914L65.1221 20.1084H66.4229V22.2705H69.209V23.8438H66.4229V29.0469C66.4229 29.5391 66.5459 29.9053 66.792 30.1455C67.0381 30.3857 67.3633 30.5059 67.7676 30.5059ZM73.3311 18.3242V21.7607C73.3311 22.1182 73.3193 22.4668 73.2959 22.8066C73.2783 23.1465 73.2578 23.4102 73.2344 23.5977H73.3486C73.5537 23.2578 73.8057 22.9795 74.1045 22.7627C74.4033 22.54 74.7373 22.373 75.1064 22.2617C75.4814 22.1504 75.8799 22.0947 76.3018 22.0947C77.0459 22.0947 77.6787 22.2207 78.2002 22.4727C78.7217 22.7188 79.1201 23.1025 79.3955 23.624C79.6768 24.1455 79.8174 24.8223 79.8174 25.6543V32H77.752V26.041C77.752 25.2852 77.5967 24.7197 77.2861 24.3447C76.9756 23.9639 76.4951 23.7734 75.8447 23.7734C75.2178 23.7734 74.7197 23.9053 74.3506 24.1689C73.9873 24.4268 73.7266 24.8105 73.5684 25.3203C73.4102 25.8242 73.3311 26.4395 73.3311 27.166V32H71.2656V18.3242H73.3311ZM91.1904 22.2705V32H89.5645L89.2832 30.6904H89.1689C88.9639 31.0244 88.7031 31.3027 88.3867 31.5254C88.0703 31.7422 87.7188 31.9033 87.332 32.0088C86.9453 32.1201 86.5381 32.1758 86.1104 32.1758C85.3779 32.1758 84.751 32.0527 84.2295 31.8066C83.7139 31.5547 83.3184 31.168 83.043 30.6465C82.7676 30.125 82.6299 29.4512 82.6299 28.625V22.2705H84.7041V28.2383C84.7041 28.9941 84.8564 29.5596 85.1611 29.9346C85.4717 30.3096 85.9521 30.4971 86.6025 30.4971C87.2295 30.4971 87.7275 30.3682 88.0967 30.1104C88.4658 29.8525 88.7266 29.4717 88.8789 28.9678C89.0371 28.4639 89.1162 27.8457 89.1162 27.1133V22.2705H91.1904ZM99.083 22.0859C99.2471 22.0859 99.4258 22.0947 99.6191 22.1123C99.8125 22.1299 99.9795 22.1533 100.12 22.1826L99.9268 24.1162C99.8037 24.0811 99.6514 24.0547 99.4697 24.0371C99.2939 24.0195 99.1357 24.0107 98.9951 24.0107C98.626 24.0107 98.2744 24.0723 97.9404 24.1953C97.6064 24.3125 97.3105 24.4941 97.0527 24.7402C96.7949 24.9805 96.5928 25.2822 96.4463 25.6455C96.2998 26.0088 96.2266 26.4307 96.2266 26.9111V32H94.1523V22.2705H95.7695L96.0508 23.9844H96.1475C96.3408 23.6387 96.5811 23.3223 96.8682 23.0352C97.1553 22.748 97.4834 22.5195 97.8525 22.3496C98.2275 22.1738 98.6377 22.0859 99.083 22.0859Z" fill="white"/>
</g>
<line x1="247.467" y1="170" x2="247.467" y2="256" stroke="#E4E7EC" stroke-width="0.933775"/>
<path d="M151.67 255.67C151.488 255.852 151.488 256.148 151.67 256.33L154.641 259.301C154.823 259.484 155.119 259.484 155.301 259.301C155.484 259.119 155.484 258.823 155.301 258.641L152.66 256L155.301 253.359C155.484 253.177 155.484 252.881 155.301 252.699C155.119 252.516 154.823 252.516 154.641 252.699L151.67 255.67ZM248 255.533H152V256.467H248V255.533Z" fill="#E4E7EC"/>
<path d="M336.33 256.33C336.512 256.148 336.512 255.852 336.33 255.67L333.359 252.699C333.177 252.516 332.881 252.516 332.699 252.699C332.516 252.881 332.516 253.177 332.699 253.359L335.34 256L332.699 258.641C332.516 258.823 332.516 259.119 332.699 259.301C332.881 259.484 333.177 259.484 333.359 259.301L336.33 256.33ZM247 256.467L336 256.467L336 255.533L247 255.533L247 256.467Z" fill="#E4E7EC"/>
<line x1="150" y1="128.64" x2="73" y2="128.64" stroke="#E4E7EC" stroke-width="1.27977"/>
<path d="M73.4525 67.5475C73.2026 67.2976 72.7974 67.2976 72.5475 67.5475L68.4753 71.6197C68.2254 71.8696 68.2254 72.2748 68.4753 72.5247C68.7252 72.7745 69.1304 72.7745 69.3803 72.5247L73 68.9049L76.6197 72.5247C76.8696 72.7745 77.2748 72.7745 77.5247 72.5247C77.7746 72.2748 77.7746 71.8696 77.5247 71.6197L73.4525 67.5475ZM73.6399 128V68H72.3601V128H73.6399Z" fill="#E4E7EC"/>
<line x1="350" y1="127.36" x2="455" y2="127.36" stroke="#E4E7EC" stroke-width="1.27977"/>
<path d="M455.452 90.5475C455.203 90.2976 454.797 90.2976 454.548 90.5475L450.475 94.6197C450.225 94.8696 450.225 95.2748 450.475 95.5247C450.725 95.7746 451.13 95.7746 451.38 95.5247L455 91.9049L458.62 95.5247C458.87 95.7746 459.275 95.7746 459.525 95.5247C459.775 95.2748 459.775 94.8696 459.525 94.6197L455.452 90.5475ZM455.64 128V91H454.36V128H455.64Z" fill="#E4E7EC"/>
<defs>
<filter id="filter0_d_5629_18834" x="0.440456" y="226.72" width="132.119" height="61.1191" filterUnits="userSpaceOnUse" color-interpolation-filters="sRGB">
<feFlood flood-opacity="0" result="BackgroundImageFix"/>
<feColorMatrix in="SourceAlpha" type="matrix" values="0 0 0 0 0 0 0 0 0 0 0 0 0 0 0 0 0 0 127 0" result="hardAlpha"/>
<feOffset dy="1.27977"/>
<feGaussianBlur stdDeviation="1.27977"/>
<feColorMatrix type="matrix" values="0 0 0 0 0.0627451 0 0 0 0 0.0941176 0 0 0 0 0.156863 0 0 0 0.05 0"/>
<feBlend mode="normal" in2="BackgroundImageFix" result="effect1_dropShadow_5629_18834"/>
<feBlend mode="normal" in="SourceGraphic" in2="effect1_dropShadow_5629_18834" result="shape"/>
</filter>
<filter id="filter1_d_5629_18834" x="389.44" y="23.7202" width="129.119" height="61.1191" filterUnits="userSpaceOnUse" color-interpolation-filters="sRGB">
<feFlood flood-opacity="0" result="BackgroundImageFix"/>
<feColorMatrix in="SourceAlpha" type="matrix" values="0 0 0 0 0 0 0 0 0 0 0 0 0 0 0 0 0 0 127 0" result="hardAlpha"/>
<feOffset dy="1.27977"/>
<feGaussianBlur stdDeviation="1.27977"/>
<feColorMatrix type="matrix" values="0 0 0 0 0.0627451 0 0 0 0 0.0941176 0 0 0 0 0.156863 0 0 0 0.05 0"/>
<feBlend mode="normal" in2="BackgroundImageFix" result="effect1_dropShadow_5629_18834"/>
<feBlend mode="normal" in="SourceGraphic" in2="effect1_dropShadow_5629_18834" result="shape"/>
</filter>
<filter id="filter2_d_5629_18834" x="158.859" y="84.4294" width="180.283" height="75.2825" filterUnits="userSpaceOnUse" color-interpolation-filters="sRGB">
<feFlood flood-opacity="0" result="BackgroundImageFix"/>
<feColorMatrix in="SourceAlpha" type="matrix" values="0 0 0 0 0 0 0 0 0 0 0 0 0 0 0 0 0 0 127 0" result="hardAlpha"/>
<feOffset dy="1.57063"/>
<feGaussianBlur stdDeviation="1.57063"/>
<feColorMatrix type="matrix" values="0 0 0 0 0.0627451 0 0 0 0 0.0941176 0 0 0 0 0.156863 0 0 0 0.05 0"/>
<feBlend mode="normal" in2="BackgroundImageFix" result="effect1_dropShadow_5629_18834"/>
<feBlend mode="normal" in="SourceGraphic" in2="effect1_dropShadow_5629_18834" result="shape"/>
</filter>
<filter id="filter3_d_5629_18834" x="263.007" y="141.777" width="21.4304" height="22.8544" filterUnits="userSpaceOnUse" color-interpolation-filters="sRGB">
<feFlood flood-opacity="0" result="BackgroundImageFix"/>
<feColorMatrix in="SourceAlpha" type="matrix" values="0 0 0 0 0 0 0 0 0 0 0 0 0 0 0 0 0 0 127 0" result="hardAlpha"/>
<feOffset dy="1.27977"/>
<feGaussianBlur stdDeviation="0.511909"/>
<feColorMatrix type="matrix" values="0 0 0 0 0 0 0 0 0 0 0 0 0 0 0 0 0 0 0.5 0"/>
<feBlend mode="normal" in2="BackgroundImageFix" result="effect1_dropShadow_5629_18834"/>
<feBlend mode="normal" in="SourceGraphic" in2="effect1_dropShadow_5629_18834" result="shape"/>
</filter>
<filter id="filter4_d_5629_18834" x="347.78" y="226.89" width="102.44" height="53.44" filterUnits="userSpaceOnUse" color-interpolation-filters="sRGB">
<feFlood flood-opacity="0" result="BackgroundImageFix"/>
<feColorMatrix in="SourceAlpha" type="matrix" values="0 0 0 0 0 0 0 0 0 0 0 0 0 0 0 0 0 0 127 0" result="hardAlpha"/>
<feOffset dy="1.10999"/>
<feGaussianBlur stdDeviation="1.10999"/>
<feColorMatrix type="matrix" values="0 0 0 0 0.0627451 0 0 0 0 0.0941176 0 0 0 0 0.156863 0 0 0 0.05 0"/>
<feBlend mode="normal" in2="BackgroundImageFix" result="effect1_dropShadow_5629_18834"/>
<feBlend mode="normal" in="SourceGraphic" in2="effect1_dropShadow_5629_18834" result="shape"/>
</filter>
<filter id="filter5_d_5629_18834" x="22.8581" y="0.929069" width="98.2837" height="51.2837" filterUnits="userSpaceOnUse" color-interpolation-filters="sRGB">
<feFlood flood-opacity="0" result="BackgroundImageFix"/>
<feColorMatrix in="SourceAlpha" type="matrix" values="0 0 0 0 0 0 0 0 0 0 0 0 0 0 0 0 0 0 127 0" result="hardAlpha"/>
<feOffset dy="1.07093"/>
<feGaussianBlur stdDeviation="1.07093"/>
<feColorMatrix type="matrix" values="0 0 0 0 0.0627451 0 0 0 0 0.0941176 0 0 0 0 0.156863 0 0 0 0.05 0"/>
<feBlend mode="normal" in2="BackgroundImageFix" result="effect1_dropShadow_5629_18834"/>
<feBlend mode="normal" in="SourceGraphic" in2="effect1_dropShadow_5629_18834" result="shape"/>
</filter>
<clipPath id="clip0_5629_18834">
<rect width="24" height="24" fill="white" transform="translate(261 140)"/>
</clipPath>
</defs>
</svg>
