<svg width="191" height="38" viewBox="0 0 191 38" fill="none" xmlns="http://www.w3.org/2000/svg">
<path d="M23.5873 23.4406C25.3314 16.948 32.0104 13.0918 38.5053 14.8277L45.9761 16.8244L43.9728 24.282C42.2286 30.7746 35.5496 34.6307 29.0548 32.8949L21.5839 30.8982L23.5873 23.4406Z" fill="#CCB4FE" stroke="#F9F6FF" stroke-width="1.62303"/>
<path d="M8.46349 14.8277C14.9583 13.0918 21.6373 16.948 23.3815 23.4406L25.3848 30.8982L17.914 32.8949C11.4191 34.6307 4.74013 30.7746 2.99599 24.282L0.992611 16.8244L8.46349 14.8277Z" fill="#CCB4FE" stroke="#F9F6FF" stroke-width="1.62303"/>
<path d="M26.8758 5.33689C32.8989 11.3565 32.8989 21.1162 26.8758 27.1358L23.6524 30.3572L20.429 27.1358C14.4058 21.1162 14.4058 11.3565 20.429 5.33688L23.6524 2.11541L26.8758 5.33689Z" fill="#5521A8" stroke="#F9F6FF" stroke-width="1.62303"/>
<path d="M16.1298 19.738C20.4444 19.3607 24.2482 22.5525 24.6259 26.8671C25.0036 31.1813 21.8099 34.9852 17.495 35.3625C13.1773 35.74 9.36879 32.5461 8.99088 28.229L8.30744 20.4219L16.1298 19.738Z" fill="#8D55F7" stroke="#F9F6FF" stroke-width="1.62303"/>
<path d="M23.2256 26.8671C23.6033 22.5525 27.4072 19.3607 31.7218 19.738L39.5441 20.4219L38.8607 28.229C38.4828 32.5461 34.6742 35.74 30.3565 35.3625C26.0416 34.9852 22.848 31.1813 23.2256 26.8671Z" fill="#8D55F7" stroke="#F9F6FF" stroke-width="1.62303"/>
<path d="M76.1476 10.1527V29.5287H73.5996V15.0807L67.1596 29.5287H65.3676L58.8996 15.0527V29.5287H56.3516V10.1527H59.0956L66.2636 26.1687L73.4316 10.1527H76.1476Z" fill="black"/>
<path d="M94.0768 14.1847V29.5287H91.5288V27.2607C91.0434 28.0447 90.3621 28.6607 89.4847 29.1087C88.6261 29.538 87.6741 29.7527 86.6287 29.7527C85.4341 29.7527 84.3608 29.51 83.4088 29.0247C82.4568 28.5207 81.7007 27.774 81.1407 26.7847C80.5994 25.7954 80.3288 24.5914 80.3288 23.1727V14.1847H82.8487V22.8367C82.8487 24.3487 83.2314 25.5154 83.9967 26.3367C84.7621 27.1394 85.8074 27.5407 87.1328 27.5407C88.4954 27.5407 89.5687 27.1207 90.3527 26.2807C91.1367 25.4407 91.5288 24.218 91.5288 22.6127V14.1847H94.0768Z" fill="black"/>
<path d="M100.927 8.8087V29.5287H98.3789V8.8087H100.927Z" fill="black"/>
<path d="M108.378 16.2847V25.3287C108.378 26.0754 108.536 26.6074 108.854 26.9247C109.171 27.2234 109.722 27.3727 110.506 27.3727H112.382V29.5287H110.086C108.667 29.5287 107.603 29.202 106.894 28.5487C106.184 27.8954 105.83 26.822 105.83 25.3287V16.2847H103.842V14.1847H105.83V10.3207H108.378V14.1847H112.382V16.2847H108.378Z" fill="black"/>
<path d="M116.785 11.6927C116.299 11.6927 115.889 11.5247 115.553 11.1887C115.217 10.8527 115.049 10.442 115.049 9.9567C115.049 9.47137 115.217 9.0607 115.553 8.7247C115.889 8.3887 116.299 8.2207 116.785 8.2207C117.251 8.2207 117.643 8.3887 117.961 8.7247C118.297 9.0607 118.465 9.47137 118.465 9.9567C118.465 10.442 118.297 10.8527 117.961 11.1887C117.643 11.5247 117.251 11.6927 116.785 11.6927ZM118.017 14.1847V29.5287H115.469V14.1847H118.017Z" fill="black"/>
<path d="M146.887 10.0127L141.231 29.5287H138.375L133.839 13.8207L129.135 29.5287L126.307 29.5567L120.847 10.0127H123.563L127.819 26.5607L132.523 10.0127H135.379L139.859 26.5047L144.143 10.0127H146.887Z" fill="black"/>
<path d="M156.368 29.7807C154.93 29.7807 153.624 29.454 152.448 28.8007C151.29 28.1474 150.376 27.2234 149.704 26.0287C149.05 24.8154 148.724 23.4154 148.724 21.8287C148.724 20.2607 149.06 18.8794 149.732 17.6847C150.422 16.4714 151.356 15.5474 152.532 14.9127C153.708 14.2594 155.024 13.9327 156.48 13.9327C157.936 13.9327 159.252 14.2594 160.428 14.9127C161.604 15.5474 162.528 16.462 163.2 17.6567C163.89 18.8514 164.236 20.242 164.236 21.8287C164.236 23.4154 163.881 24.8154 163.172 26.0287C162.481 27.2234 161.538 28.1474 160.344 28.8007C159.149 29.454 157.824 29.7807 156.368 29.7807ZM156.368 27.5407C157.282 27.5407 158.141 27.326 158.944 26.8967C159.746 26.4674 160.39 25.8234 160.876 24.9647C161.38 24.106 161.632 23.0607 161.632 21.8287C161.632 20.5967 161.389 19.5514 160.904 18.6927C160.418 17.834 159.784 17.1994 159 16.7887C158.216 16.3594 157.366 16.1447 156.452 16.1447C155.518 16.1447 154.66 16.3594 153.876 16.7887C153.11 17.1994 152.494 17.834 152.028 18.6927C151.561 19.5514 151.328 20.5967 151.328 21.8287C151.328 23.0794 151.552 24.134 152 24.9927C152.466 25.8514 153.082 26.4954 153.848 26.9247C154.613 27.3354 155.453 27.5407 156.368 27.5407Z" fill="black"/>
<path d="M170.134 16.6767C170.582 15.7994 171.217 15.118 172.038 14.6327C172.878 14.1474 173.895 13.9047 175.09 13.9047V16.5367H174.418C171.562 16.5367 170.134 18.086 170.134 21.1847V29.5287H167.586V14.1847H170.134V16.6767Z" fill="black"/>
<path d="M186.599 29.5287L180.579 22.7527V29.5287H178.031V8.8087H180.579V20.9887L186.487 14.1847H190.043L182.819 21.8287L190.071 29.5287H186.599Z" fill="black"/>
</svg>
