<svg width="100" height="100" viewBox="0 0 100 100" fill="none" xmlns="http://www.w3.org/2000/svg">
<path d="M85.9675 50.8786H73.8013C73.3531 50.8786 73.0009 51.2308 73.0009 51.679V65.5264H59.8102C59.3619 65.5264 59.0097 65.8786 59.0097 66.3269V79.6139H57.4249C57.7291 78.9896 57.7131 78.2371 57.3289 77.6449L55.2958 74.4592L49.1806 59.7317C49.1486 59.6516 49.1006 59.5556 49.0205 59.4916L42.5532 52.512C42.7613 51.6155 42.7293 50.1428 42.7293 49.1983H45.6429C48.3803 49.1983 50.5894 46.9731 50.5894 44.2518C50.5894 41.5304 48.3642 39.3053 45.6429 39.3053H42.7293V36.1997C42.7293 33.4623 41.2886 30.757 38.9514 29.3322V27.2672C41.5608 27.4913 43.8979 25.4743 43.8819 22.8169C43.7859 21.4242 44.2021 17.0539 43.4657 15.8213C44.1541 15.2931 46.4432 11.243 44.2341 11.291C44.1861 11.291 40.296 12.0274 37.9589 10.4746C34.229 7.84924 26.2568 11.1949 26.6891 16.3496C26.8972 18.6868 26.337 20.6398 28.194 21.8884C28.1459 23.009 28.258 24.2416 28.8983 25.17C21.4386 22.0484 14.9556 29.3962 14.9228 38.4407C14.8427 46.1086 20.0454 53.328 26.5767 52.3998C26.993 54.689 28.3697 56.658 30.3707 57.8747L25.8083 82.4315C25.8083 82.4315 24.8319 85.441 24.8319 85.457C24.2876 87.0738 25.6323 88.8988 27.3451 88.8507H36.1656C37.7184 88.8988 38.775 87.0259 37.9105 85.7291L35.9255 82.5115L40.0236 65.4952L42.1367 67.6243L45.8506 74.7479L45.4984 78.5579C45.4504 79.0861 45.6265 79.5984 45.9626 79.9985C45.8826 80.1266 45.8186 80.2707 45.8186 80.4308V87.3783C45.8186 88.4188 47.4194 88.4188 47.4194 87.3783V81.2311H59.8581C60.3063 81.2311 60.6585 80.879 60.6585 80.4307V67.1437H73.8493C74.2975 67.1437 74.6497 66.7915 74.6497 66.3433V52.4958H86.0157C87.0562 52.4958 87.0562 50.895 86.0157 50.895L85.9675 50.8786ZM48.9884 44.2672C48.9884 45.9321 47.7558 47.3248 46.1549 47.5809V40.9696C47.7558 41.2257 48.9884 42.6025 48.9884 44.2833V44.2672ZM56 78.9412C56 78.9412 55.8719 79.1493 55.6478 79.1493H47.4516C47.1635 79.1173 47.0674 79.0052 47.0514 78.7171L47.3556 75.4193L54.1271 75.6274L55.984 78.5249C56.0961 78.701 56.0321 78.8611 55.984 78.9251L56 78.9412ZM39.5912 40.9222H44.5538V47.6135H39.5912C34.9809 47.6135 31.235 43.4674 31.235 38.3768V35.2232C31.3471 30.805 37.8144 30.805 37.9264 35.2232V38.3768C37.9264 39.8816 38.8068 40.9222 39.5912 40.9222ZM41.128 36.2157V39.3212H39.7993C39.3191 38.905 39.5912 35.8475 39.5272 35.2231C39.3511 28.6918 29.7942 28.6918 29.6342 35.2231V38.3767C29.6342 45.0521 35.0129 49.8862 41.1437 49.2141V50.6709H28.0328C28.0809 50.5268 27.9368 34.5029 28.1289 35.0951C29.6497 27.2511 41.0153 28.2916 41.128 36.2157ZM37.3501 28.5318C35.8614 28.0515 34.2765 27.8914 32.7397 28.2596C32.7077 28.2116 32.6757 28.1796 32.6437 28.1316V27.2671H37.3501L37.3501 28.5318ZM42.2806 22.8169C42.2806 24.3856 41 25.6663 39.4312 25.6663H32.6437C30.8828 25.6663 29.5861 24.0495 29.7943 22.3206C32.0675 22.1445 33.5082 20.8638 33.7803 18.7348C33.8924 17.9664 34.8368 17.8543 36.966 17.7903C38.7109 17.7422 40.5518 17.6302 42.1367 16.8298C42.4088 17.278 42.2167 22.2085 42.2647 22.8169L42.2806 22.8169ZM30.9791 12.1393C32.804 11.1468 35.3333 10.7625 37.0622 11.8191C39.0632 13.1478 41.7846 13.1478 43.3374 13.0198C42.521 15.8692 39.5274 16.1733 36.9181 16.2054C29.6984 16.0934 34.2288 20.1595 29.7145 20.7358C27.8095 20.6877 28.4979 18.0783 28.2738 16.3335C28.2098 14.0283 29.9386 12.7157 30.9791 12.1393ZM22.895 26.5789C19.4853 29.8125 18.7809 34.9993 18.8129 38.9531H16.5077C16.2676 33.3342 19.085 28.1157 22.879 26.5789H22.895ZM16.6358 40.5545H18.8769C19.005 42.6996 19.3091 44.2364 19.3571 44.4284C19.4372 44.8606 19.8854 45.1487 20.3016 45.0527C20.7339 44.9567 21.006 44.5404 20.926 44.1082C20.8939 43.9641 18.0925 29.8284 26.4647 26.1309C28.1296 26.387 29.7144 27.2675 31.0431 28.7242V28.8682C28.2737 30.2129 26.4008 33.1104 26.4328 36.232V50.8315C21.4222 51.4718 17.4522 46.7814 16.6518 40.5545L16.6358 40.5545ZM36.5341 87.0258C36.5341 87.0258 36.374 87.2499 36.1339 87.2499H27.3133C26.641 87.2659 26.1288 86.5616 26.3368 85.9373L27.1372 83.44H34.597L36.518 86.5617C36.646 86.7698 36.566 86.9458 36.518 87.0099L36.5341 87.0258ZM38.6631 64.1666L34.405 81.8397H27.5214L31.8437 58.6117C32.404 58.7878 32.9643 58.9478 33.5566 59.0119L38.6631 64.1666ZM43.3215 66.5839L34.501 57.6834C33.6846 57.2191 32.4839 57.3632 31.6035 56.7709C29.8106 55.8424 28.5619 54.1936 28.1618 52.2566H40.9847C40.8726 52.6088 40.8086 53.009 41.0967 53.2971L47.7561 60.4848L53.3591 73.9962H52.8628L47.1158 73.8041L43.45 66.7765C43.45 66.7765 43.37 66.6484 43.3059 66.5844L43.3215 66.5839Z" fill="#171717"/>
</svg>
