<svg width="48" height="48" viewBox="0 0 48 48" fill="none" xmlns="http://www.w3.org/2000/svg">
<path fill-rule="evenodd" clip-rule="evenodd" d="M24 0C10.7452 0 0 10.7452 0 24C0 37.2548 10.7452 48 24 48C37.2548 48 48 37.2548 48 24C48 10.7452 37.2548 0 24 0ZM34.3379 18.6698H27.5586V16.7275H34.3379V18.6698ZM33.74 20.3003C32.9242 19.9395 32.0076 19.7583 30.9886 19.7583C29.2742 19.7583 27.8819 20.2944 26.8057 21.3591C25.7325 22.4267 25.1951 23.9606 25.1951 25.9608C25.1951 28.0932 25.7882 29.6345 26.9818 30.5804C28.1694 31.5278 29.5436 32 31.1015 32C32.9875 32 34.455 31.4387 35.5026 30.3176C36.1739 29.6108 36.5532 28.9143 36.636 28.2313H33.5128C33.3321 28.5698 33.1214 28.8342 32.8821 29.0257C32.4471 29.3776 31.8796 29.5543 31.1858 29.5543C30.5265 29.5543 29.9651 29.4088 29.4985 29.1193C28.7278 28.6545 28.3244 27.8422 28.2732 26.6855H36.7971C36.8106 25.6891 36.7775 24.9229 36.6947 24.3942C36.5532 23.4899 36.2432 22.694 35.76 22.008C35.2302 21.2299 34.5574 20.6597 33.74 20.3003ZM18.844 16C20.7737 16.0282 22.1389 16.5821 22.9441 17.6631C23.4273 18.3269 23.6696 19.1198 23.6696 20.0449C23.6696 20.9968 23.4273 21.7645 22.9381 22.3436C22.6642 22.6673 22.2623 22.9643 21.7309 23.2316C22.5377 23.5226 23.1458 23.9814 23.5597 24.6096C23.9692 25.2362 24.1754 25.9994 24.1754 26.8963C24.1754 27.8214 23.9406 28.6515 23.4694 29.3851C23.1714 29.8706 22.7981 30.2805 22.3496 30.6131C21.8453 30.9947 21.2508 31.2546 20.5629 31.3971C19.8751 31.5382 19.1315 31.6065 18.3277 31.6065H11.1992V16H18.844Z" fill="black"/>
<path fill-rule="evenodd" clip-rule="evenodd" d="M14.3533 18.71H17.7972C18.5543 18.71 19.1774 18.7916 19.6681 18.9535C20.2341 19.1881 20.5171 19.6677 20.5171 20.3968C20.5171 21.0502 20.3018 21.5076 19.8743 21.7659C19.4439 22.0243 18.8854 22.1535 18.2006 22.1535H14.3533V18.71ZM29.1652 22.9079C29.5972 22.4683 30.2083 22.2486 30.991 22.2486C31.7135 22.2486 32.3171 22.455 32.8078 22.8692C33.2924 23.2865 33.5664 23.8924 33.6221 24.6942H28.3494C28.4608 23.9428 28.7333 23.3474 29.1652 22.9079ZM18.2487 24.7358H14.3533V28.898H18.1946C18.8809 28.898 19.4168 28.8059 19.7976 28.6233C20.4915 28.2818 20.8377 27.6343 20.8377 26.6751C20.8377 25.8613 20.5035 25.3045 19.8307 25.0001C19.4544 24.8308 18.9261 24.7417 18.2487 24.7358Z" fill="black"/>
</svg>
