<svg width="100" height="100" viewBox="0 0 100 100" fill="none" xmlns="http://www.w3.org/2000/svg">
<path d="M87.908 34.5879V87.8065C87.908 88.4043 87.4245 88.8878 86.8267 88.8878H11.8157C11.2179 88.8878 10.7344 88.4043 10.7344 87.8065C10.7344 87.2088 11.2179 86.7252 11.8157 86.7252H85.7488V34.5846C85.7488 33.9869 86.2323 33.5033 86.83 33.5033C87.4278 33.5033 87.9113 33.9869 87.9113 34.5846L87.908 34.5879ZM68.7647 42.2862H79.7871C80.3849 42.2862 80.8684 42.7697 80.8684 43.3675V84.9739C80.8684 85.5717 80.3849 86.0552 79.7871 86.0552H68.7647C68.1669 86.0552 67.6834 85.5717 67.6834 84.9739V43.3675C67.6834 42.7698 68.1669 42.2862 68.7647 42.2862ZM69.846 83.8927H78.7054V44.449H69.846V83.8927ZM62.6616 52.9013C63.2594 52.9013 63.7429 53.3848 63.7429 53.9826V84.9739C63.7429 85.5717 63.2594 86.0552 62.6616 86.0552H51.6391C51.0414 86.0552 50.5579 85.5717 50.5579 84.9739V53.9826C50.5579 53.3848 51.0414 52.9013 51.6391 52.9013H62.6616ZM61.5803 55.06H52.7208V83.8886H61.5803V55.06ZM45.7878 59.6668C46.3856 59.6668 46.8691 60.1503 46.8691 60.7481V84.9704C46.8691 85.5682 46.3856 86.0517 45.7878 86.0517H34.7654C34.1676 86.0517 33.6841 85.5682 33.6841 84.9704V60.7481C33.6841 60.1504 34.1676 59.6668 34.7654 59.6668H45.7878ZM44.7066 61.8255H35.8471V83.8889H44.7066V61.8255ZM28.8108 71.7778C29.4085 71.7778 29.8921 72.2613 29.8921 72.8591V84.9702C29.8921 85.568 29.4085 86.0515 28.8108 86.0515H17.7883C17.1906 86.0515 16.707 85.568 16.707 84.9702V72.8591C16.707 72.2613 17.1905 71.7778 17.7883 71.7778H28.8108ZM27.7295 73.9365H18.87V83.8888H27.7295V73.9365ZM64.1 27.332L60.7953 27.5337C60.7725 27.5337 60.7496 27.5376 60.7306 27.5376C60.3346 27.5376 59.9691 27.3205 59.7788 26.9665C59.5808 26.5934 59.6151 26.1403 59.8702 25.8052L70.6792 11.5391C70.919 11.2231 71.3074 11.0632 71.6995 11.1241C72.0917 11.1812 72.4191 11.4477 72.5524 11.8208L77.4561 25.1308C77.5741 25.4506 77.5323 25.8085 77.3457 26.0941C77.1591 26.3796 76.8469 26.5624 76.5081 26.5814L72.7351 26.8099C71.7223 31.668 69.5103 36.1187 66.118 40.0438C62.7866 43.8968 58.4349 47.1406 53.1735 49.6914C45.399 53.4607 36.0106 55.4633 26.5379 55.4633C23.8156 55.4633 21.0858 55.2996 18.3827 54.9607C18.3446 54.9569 18.3141 54.9341 18.2761 54.9265C18.1961 54.9074 18.12 54.8846 18.0476 54.8503C17.9943 54.8237 17.9487 54.797 17.903 54.7628C17.842 54.7209 17.7849 54.6714 17.7354 54.6143C17.6936 54.5724 17.6593 54.5305 17.6288 54.481C17.5869 54.4201 17.5565 54.3554 17.5298 54.2869C17.507 54.2297 17.4842 54.1726 17.4727 54.1117C17.4651 54.0851 17.4499 54.0622 17.4461 54.0318C17.4385 53.9823 17.4537 53.9404 17.4537 53.8947C17.4537 53.849 17.4385 53.8033 17.4423 53.7577C17.4461 53.731 17.4613 53.712 17.4651 53.6853C17.4803 53.6092 17.507 53.5444 17.5336 53.4759C17.5603 53.415 17.5831 53.3541 17.6212 53.297C17.6593 53.2399 17.7088 53.1904 17.7545 53.1409C17.804 53.0914 17.8497 53.0457 17.9068 53.0038C17.9601 52.9657 18.021 52.9391 18.0857 52.9124C18.1542 52.882 18.219 52.8553 18.2951 52.8401C18.3217 52.8363 18.3408 52.8173 18.3674 52.8135C42.62 49.5811 58.8121 44.1329 64.0889 27.3309L64.1 27.332ZM48.8329 47.3009C43.061 50.1334 36.3104 51.9419 29.595 53.225C37.6893 52.848 45.5814 50.9673 52.2364 47.7425C62.5542 42.7397 69.141 34.8701 70.7891 25.5884C70.7929 25.5579 70.812 25.5351 70.8196 25.5046C70.8386 25.4323 70.8653 25.3676 70.8995 25.3028C70.93 25.2419 70.9605 25.1848 71.0023 25.1315C71.0442 25.0782 71.0937 25.0325 71.1432 24.9868C71.1965 24.9412 71.246 24.8993 71.3069 24.8612C71.364 24.8269 71.4249 24.8041 71.4897 24.7812C71.5582 24.7546 71.6267 24.7356 71.7029 24.7241C71.7333 24.7203 71.7562 24.7051 71.7866 24.7013L74.9277 24.5109L71.2118 14.4183L63.0147 25.239L65.5084 25.0867C65.5694 25.0829 65.6227 25.1057 65.6798 25.1096C65.7369 25.1134 65.794 25.1057 65.8511 25.121C65.8663 25.1248 65.8739 25.1362 65.8892 25.14C65.9653 25.1629 66.03 25.2047 66.0948 25.2428C66.1519 25.2733 66.209 25.2999 66.2585 25.338C66.3118 25.3837 66.3499 25.437 66.3917 25.4941C66.4374 25.5474 66.4831 25.5969 66.5174 25.6578C66.5478 25.7111 66.5593 25.7758 66.5783 25.8367C66.6011 25.9091 66.6316 25.9814 66.6392 26.0614C66.6392 26.0766 66.6506 26.088 66.6506 26.1033C66.6544 26.1642 66.6316 26.2175 66.6278 26.2746C66.6202 26.3317 66.6316 26.3888 66.6164 26.4497C64.1074 35.8499 58.2898 42.6759 48.8366 47.3134L48.8329 47.3009ZM29.1603 33.5376C27.2338 33.5376 25.669 32.3193 25.669 30.823C25.669 30.2253 25.1855 29.7417 24.5878 29.7417C23.99 29.7417 23.5065 30.2252 23.5065 30.823C23.5065 33.1912 25.4786 35.1709 28.079 35.6049V36.8118C28.079 37.4096 28.5625 37.8931 29.1603 37.8931C29.758 37.8931 30.2416 37.4096 30.2416 36.8118V35.6049C32.842 35.1671 34.8141 33.1911 34.8141 30.823C34.8141 28.1351 32.2784 25.9459 29.1641 25.9459C27.2376 25.9459 25.6728 24.7276 25.6728 23.2313C25.6728 21.735 27.2377 20.5166 29.1641 20.5166C31.0906 20.5166 32.6553 21.735 32.6553 23.2313C32.6553 23.829 33.1389 24.3126 33.7366 24.3126C34.3344 24.3126 34.8179 23.829 34.8179 23.2313C34.8179 20.8631 32.8458 18.8834 30.2454 18.4494V17.2424C30.2454 16.6447 29.7619 16.1612 29.1641 16.1612C28.5663 16.1612 28.0828 16.6447 28.0828 17.2424V18.4494C25.4824 18.8872 23.5103 20.8632 23.5103 23.2313C23.5103 25.9192 26.0459 28.1084 29.1603 28.1084C31.0868 28.1084 32.6515 29.3267 32.6515 30.823C32.6515 32.3193 31.0867 33.5376 29.1603 33.5376ZM15.3971 27.0272C15.3971 19.4392 21.5724 13.264 29.1603 13.264C36.7481 13.264 42.9235 19.4393 42.9235 27.0272C42.9235 34.6151 36.7481 40.7904 29.1603 40.7904C21.5724 40.7904 15.3971 34.615 15.3971 27.0272ZM17.5558 27.0272C17.5558 33.4234 22.7603 38.6276 29.1562 38.6276C35.5521 38.6276 40.7566 33.4231 40.7566 27.0272C40.7566 20.6313 35.5521 15.4267 29.1562 15.4267C22.7603 15.4267 17.5558 20.6313 17.5558 27.0272Z" fill="#171717"/>
</svg>
