<svg width="100" height="100" viewBox="0 0 100 100" fill="none" xmlns="http://www.w3.org/2000/svg">
<path d="M20.2339 44.0543H28.2755C28.7476 44.0543 29.1266 43.672 29.1266 43.2033V35.1616C29.1266 34.6929 28.7476 34.3105 28.2755 34.3105H20.2339C19.7618 34.3105 19.3828 34.6929 19.3828 35.1616V43.2033C19.3828 43.672 19.7618 44.0543 20.2339 44.0543ZM21.0849 36.0126H27.4245V42.3522H21.0849V36.0126Z" fill="#171717"/>
<path d="M20.2339 55.7555H28.2755C28.7476 55.7555 29.1266 55.3732 29.1266 54.9044V46.8628C29.1266 46.394 28.7476 46.0117 28.2755 46.0117H20.2339C19.7618 46.0117 19.3828 46.394 19.3828 46.8628V54.9044C19.3828 55.3732 19.7618 55.7555 20.2339 55.7555ZM21.0849 47.7138H27.4245V54.0534H21.0849V47.7138Z" fill="#171717"/>
<path d="M89.1553 31.9527C89.6273 31.9527 90.0063 31.5704 90.0063 31.1017V26.6238C90.0063 26.155 89.6273 25.7727 89.1553 25.7727H65.7516V21.6106V21.6073V17.6679C65.7516 17.1992 65.3726 16.8169 64.9006 16.8169H63.2816V13.4493C63.2816 12.9806 62.9026 12.5983 62.4306 12.5983H50.8581V8.353C50.8581 7.88426 50.4791 7.50195 50.0071 7.50195C49.535 7.50195 49.156 7.88426 49.156 8.353V12.5983H37.5835C37.1115 12.5983 36.7325 12.9806 36.7325 13.4493V16.8169H35.1136C34.6415 16.8169 34.2625 17.1992 34.2625 17.6679V21.6073V21.6106V25.7727L10.8589 25.7761C10.3868 25.7761 10.0078 26.1584 10.0078 26.6271V31.105C10.0078 31.5738 10.3868 31.9561 10.8589 31.9561H12.5344V77.2341C10.9287 78.8597 10.0078 81.0671 10.0078 83.3675V86.652C10.0078 87.1208 10.3868 87.5031 10.8589 87.5031H89.1547C89.6268 87.5031 90.0058 87.1208 90.0058 86.652V83.3675C90.0058 81.0504 89.1082 78.873 87.4792 77.224V31.9528L89.1553 31.9527ZM88.3042 27.4748V30.2507H65.7516V27.4748H88.3042ZM65.8112 74.6149C65.5585 74.6149 65.3192 74.5883 65.0865 74.5351C63.5971 74.1994 62.5167 72.8463 62.5167 71.3137C62.5167 71.1209 62.5334 70.9314 62.5666 70.7453C62.7893 69.4488 63.7633 68.3983 65.0965 68.099C65.3192 68.0459 65.5619 68.0193 65.8112 68.0193C67.633 68.0193 69.1123 69.4953 69.1123 71.3137C69.1123 73.1288 67.6329 74.6149 65.8112 74.6149ZM57.6631 79.1261C57.58 78.9765 57.4903 78.8302 57.3972 78.684C57.344 78.6009 57.2941 78.5177 57.2376 78.438C57.1312 78.285 57.0182 78.1354 56.9052 77.9892C56.852 77.9227 56.8054 77.8562 56.7489 77.7897C56.5761 77.5803 56.3932 77.3775 56.1971 77.1813C55.9843 76.9686 55.7582 76.7658 55.5289 76.5796C55.4524 76.5165 55.3693 76.4633 55.2928 76.4034C55.1366 76.2838 54.977 76.1641 54.8141 76.0544C54.7111 75.9879 54.6047 75.9281 54.5016 75.8649C54.3554 75.7751 54.2091 75.6854 54.0562 75.6056C53.9365 75.5424 53.8168 75.4892 53.6938 75.436C53.5509 75.3695 53.4046 75.2997 53.2583 75.2432C53.2251 75.2299 53.1918 75.21 53.1553 75.1967C53.1586 75.1934 53.1652 75.1867 53.1686 75.1834C53.3015 75.0737 53.4279 74.9606 53.5475 74.841C53.5775 74.8111 53.6074 74.7745 53.6373 74.7446C53.7237 74.6515 53.8102 74.5584 53.8899 74.4587C53.9298 74.4088 53.9664 74.3556 54.0063 74.3058C54.0695 74.2193 54.136 74.1329 54.1958 74.0398C54.2357 73.98 54.2689 73.9201 54.3055 73.8603C54.3587 73.7705 54.4086 73.6808 54.4584 73.5877C54.4917 73.5245 54.5216 73.458 54.5515 73.3915C54.5947 73.2985 54.6346 73.202 54.6712 73.1056C54.6978 73.0392 54.7211 72.9727 54.7443 72.9029C54.7776 72.8031 54.8075 72.6967 54.8341 72.5937C54.8507 72.5272 54.8707 72.4607 54.8873 72.3909C54.9139 72.2746 54.9305 72.1582 54.9471 72.0385C54.9571 71.9787 54.9671 71.9222 54.9737 71.859C54.9937 71.6795 55.0036 71.4966 55.0036 71.3138C55.0036 68.8505 53.2084 66.8026 50.8515 66.3971V48.3524H58.5973V78.4317C58.5574 78.4882 58.5242 78.5513 58.4843 78.6079C58.4344 78.6843 58.3812 78.7608 58.3347 78.8372C58.3148 78.8705 58.2948 78.9037 58.2749 78.937C58.225 79.0234 58.1785 79.1098 58.1319 79.1963C58.0787 79.296 58.0255 79.3924 57.9757 79.4955C57.9591 79.532 57.9358 79.5653 57.9192 79.6019C57.8859 79.532 57.846 79.4656 57.8094 79.3957C57.7629 79.306 57.7164 79.2162 57.6665 79.1265L57.6631 79.1261ZM39.0832 76.1142C39.0034 76.061 38.9269 76.0111 38.8471 75.9613C38.6743 75.8515 38.4948 75.7518 38.3119 75.6554C38.2454 75.6222 38.1823 75.5823 38.1158 75.5524C37.8631 75.426 37.6038 75.3097 37.3412 75.2066C37.3844 75.1734 37.421 75.1335 37.4609 75.0969C37.5041 75.057 37.5473 75.0171 37.5905 74.9772C37.7634 74.8143 37.9263 74.6448 38.0759 74.462C38.0825 74.452 38.0925 74.4453 38.0991 74.4354C38.2521 74.2426 38.3883 74.0364 38.5114 73.8204C38.5413 73.7705 38.5679 73.7206 38.5978 73.6674C38.7141 73.4547 38.8172 73.2319 38.9003 73.0025C38.9036 72.9959 38.907 72.9926 38.907 72.9859C38.9901 72.7532 39.0499 72.5105 39.0998 72.2645C39.1131 72.2047 39.123 72.1449 39.1297 72.0817C39.1696 71.8324 39.1962 71.5764 39.1962 71.3204C39.1962 71.0412 39.1696 70.7652 39.1264 70.496C39.1131 70.4062 39.0831 70.3198 39.0665 70.2333C39.0266 70.0571 38.9867 69.8843 38.9336 69.7147C38.9003 69.615 38.8538 69.5186 38.8139 69.4189C38.754 69.2726 38.6909 69.1263 38.6177 68.9867C38.5645 68.887 38.5047 68.7906 38.4449 68.6941C38.3651 68.5678 38.2853 68.4415 38.1955 68.3218C38.1257 68.2287 38.0493 68.139 37.9728 68.0492C37.8797 67.9395 37.78 67.8365 37.6736 67.7334C37.5872 67.6503 37.5007 67.5705 37.4077 67.494C37.2979 67.401 37.1816 67.3179 37.0619 67.2347C36.9622 67.1649 36.8658 67.0984 36.7594 67.0353C36.6298 66.9588 36.4968 66.8957 36.3605 66.8292C36.2541 66.7793 36.151 66.7261 36.0413 66.6796C36.0147 66.6696 35.9881 66.653 35.9582 66.643L35.9649 22.462H64.0493V66.6362C64.0194 66.6462 63.9928 66.6628 63.9662 66.6761C63.8664 66.716 63.77 66.7658 63.6736 66.8124C63.5273 66.8822 63.3811 66.952 63.2414 67.0351C63.145 67.0916 63.0553 67.1548 62.9655 67.218C62.8392 67.3077 62.7129 67.3975 62.5965 67.4972C62.5101 67.5703 62.4303 67.6435 62.3472 67.7233C62.2375 67.8296 62.1344 67.9393 62.0347 68.0557C61.9616 68.1388 61.8917 68.2252 61.8253 68.315C61.7322 68.438 61.6491 68.5677 61.5693 68.6973C61.5128 68.7904 61.4529 68.8835 61.4031 68.9799C61.3266 69.1228 61.2668 69.2691 61.2069 69.4187C61.167 69.5151 61.1238 69.6082 61.0906 69.7079C61.0341 69.8775 60.9942 70.0503 60.9543 70.2265C60.9343 70.3129 60.9077 70.3994 60.8944 70.4891C60.8512 70.7584 60.8246 71.031 60.8246 71.3136C60.8246 71.5729 60.8512 71.8255 60.8911 72.0749C60.9011 72.1347 60.9111 72.1979 60.921 72.2577C60.9709 72.5037 61.0307 72.7464 61.1138 72.9791C61.1172 72.9857 61.1205 72.9957 61.1238 73.0024C61.2069 73.2284 61.31 73.4445 61.423 73.6573C61.4529 73.7105 61.4795 73.7637 61.5128 73.8168C61.6358 74.0263 61.7687 74.2324 61.9217 74.4219C61.935 74.4385 61.9516 74.4551 61.9649 74.4717C62.1045 74.6446 62.2608 74.8075 62.4236 74.9604C62.4735 75.007 62.52 75.0502 62.5699 75.0934C62.6098 75.1267 62.6431 75.1632 62.6829 75.1965C62.6298 75.2164 62.5799 75.2497 62.5267 75.2696C62.2475 75.3826 61.9749 75.509 61.7089 75.6519C61.6424 75.6885 61.5726 75.7184 61.5061 75.755C61.1837 75.9378 60.8778 76.1406 60.5787 76.3633C60.5122 76.4132 60.449 76.4697 60.3825 76.5229C60.3559 76.5428 60.3326 76.5628 60.3061 76.5861L60.2928 47.5008C60.2928 47.0321 59.9138 46.6498 59.4417 46.6498H40.5656C40.0935 46.6498 39.7146 47.0321 39.7146 47.5008V76.5724C39.6647 76.5292 39.6082 76.496 39.555 76.4528C39.3987 76.3331 39.2425 76.2167 39.0796 76.107L39.0832 76.1142ZM30.9018 71.3171C30.9018 69.502 32.3812 68.0226 34.2029 68.0226C34.4556 68.0226 34.695 68.0492 34.9277 68.1057C36.4402 68.4448 37.4974 69.7679 37.4974 71.3171C37.4974 71.5099 37.4808 71.6961 37.4475 71.8822C37.2215 73.1721 36.2308 74.2458 34.9209 74.5417C34.6949 74.5949 34.4555 74.6215 34.2029 74.6215C32.3811 74.6215 30.9018 73.1388 30.9018 71.3204L30.9018 71.3171ZM53.2349 71.982C52.9257 73.4846 51.596 74.6183 50.0036 74.6183C48.1885 74.6116 46.7157 73.1323 46.7157 71.3172C46.7157 69.5021 48.1918 68.0293 50.0102 68.0227C51.8253 68.0227 53.3047 69.4987 53.3047 71.3172C53.3047 71.5432 53.2814 71.7659 53.2382 71.982L53.2349 71.982ZM49.1492 66.4037C46.8022 66.8159 45.0137 68.8637 45.0137 71.3171C45.0137 71.5032 45.0269 71.6828 45.0436 71.8623C45.0502 71.9221 45.0602 71.9786 45.0702 72.0385C45.0868 72.1581 45.1067 72.2778 45.1333 72.3942C45.15 72.4607 45.1666 72.5271 45.1865 72.5936C45.2131 72.6967 45.243 72.7997 45.2763 72.9028C45.2995 72.9726 45.3261 73.0391 45.3527 73.1056C45.3893 73.202 45.4292 73.2951 45.4724 73.3882C45.5023 73.4546 45.5356 73.5211 45.5688 73.5876C45.6154 73.6774 45.6652 73.7638 45.7151 73.8502C45.7517 73.9134 45.7916 73.9766 45.8315 74.0397C45.888 74.1229 45.9478 74.206 46.0076 74.2857C46.0509 74.3423 46.0908 74.4021 46.1373 74.4586C46.2038 74.5417 46.2802 74.6215 46.3534 74.7013C46.4199 74.7711 46.483 74.8409 46.5528 74.9074C46.6459 74.9972 46.7423 75.0869 46.8421 75.17C46.852 75.18 46.862 75.1866 46.872 75.1966C46.8254 75.2132 46.7822 75.2398 46.7357 75.2565C46.6094 75.3096 46.483 75.3662 46.36 75.4227C46.227 75.4825 46.0974 75.5457 45.9677 75.6122C45.8481 75.6753 45.7317 75.7418 45.612 75.8116C45.489 75.8848 45.3627 75.9579 45.243 76.0377C45.13 76.1108 45.0203 76.1906 44.9106 76.2671C44.7942 76.3502 44.6779 76.4333 44.5682 76.523C44.4618 76.6062 44.3588 76.6959 44.259 76.7857C44.1526 76.8788 44.0463 76.9752 43.9432 77.0749C43.8468 77.168 43.7504 77.2677 43.6573 77.3641C43.5609 77.4672 43.4645 77.5702 43.3714 77.6799C43.2816 77.783 43.1985 77.8894 43.1154 77.9957C43.0423 78.0888 42.9692 78.1786 42.9027 78.275C42.8894 78.2949 42.8761 78.3182 42.8595 78.3381C42.7797 78.4512 42.7065 78.5642 42.6334 78.6772C42.5569 78.7969 42.4805 78.9199 42.4107 79.0462C42.3442 79.1626 42.281 79.2823 42.2179 79.4019C42.1813 79.4718 42.1414 79.5382 42.1081 79.6081C42.0915 79.5748 42.0716 79.5449 42.055 79.5117C42.0018 79.4019 41.9419 79.2956 41.8854 79.1859C41.8422 79.1094 41.8023 79.0296 41.7591 78.9565C41.7358 78.9199 41.7159 78.88 41.6926 78.8435C41.6427 78.7637 41.5929 78.6872 41.5397 78.6107C41.4998 78.5509 41.4665 78.4911 41.4266 78.4346L41.42 48.3519H49.1458V66.3966L49.1492 66.4037ZM38.4346 14.3003H61.5787V16.8168H38.4346V14.3003ZM35.9646 18.5189H64.0456V20.7595H35.9646V18.5189ZM11.7099 27.4744H34.2625V30.2503H11.7099V27.4744ZM34.2625 31.9524V66.3166C34.2525 66.3166 34.2426 66.3199 34.2326 66.3199C34.2226 66.3199 34.2127 66.3166 34.2027 66.3166C31.4434 66.3166 29.1995 68.5572 29.1995 71.3132C29.1995 71.4993 29.2128 71.6822 29.2294 71.8617C29.2361 71.9215 29.246 71.978 29.256 72.0345C29.2726 72.1542 29.2926 72.2739 29.3192 72.3936C29.3325 72.4601 29.3524 72.5266 29.369 72.593C29.3956 72.6994 29.4255 72.8058 29.4621 72.9089C29.4854 72.9753 29.5087 73.0418 29.5353 73.105C29.5751 73.2047 29.615 73.3011 29.6583 73.3975C29.6882 73.4607 29.7181 73.5239 29.748 73.587C29.7979 73.6834 29.8511 73.7765 29.9043 73.8696C29.9375 73.9261 29.9707 73.9826 30.0073 74.0392C30.0705 74.1356 30.137 74.2286 30.2068 74.3184C30.24 74.3649 30.2733 74.4115 30.3098 74.458C30.3996 74.571 30.4993 74.6774 30.599 74.7838C30.619 74.8038 30.6356 74.8237 30.6556 74.8436C30.7786 74.9666 30.9082 75.083 31.0412 75.1927C31.0478 75.196 31.0512 75.2027 31.0545 75.206C30.9813 75.2326 30.9182 75.2758 30.8451 75.3057C30.5791 75.4188 30.3165 75.5384 30.0605 75.6747C29.9408 75.7379 29.8278 75.8077 29.7114 75.8775C29.492 76.0072 29.2826 76.1468 29.0765 76.2964C28.9634 76.3795 28.8504 76.4593 28.744 76.5491C28.5379 76.7153 28.3418 76.8915 28.1523 77.0743C28.0625 77.1607 27.9728 77.2405 27.8864 77.3303C27.6204 77.6095 27.3678 77.9021 27.1384 78.2179C26.919 78.5138 26.7261 78.823 26.5499 79.1387C26.53 79.1753 26.5034 79.2086 26.4835 79.2451C26.4668 79.2119 26.4402 79.182 26.4236 79.1487C26.2474 78.8329 26.0579 78.5237 25.8419 78.2312C25.5825 77.8689 25.2834 77.5198 24.9509 77.1906C24.7381 76.9779 24.5154 76.7784 24.2827 76.5889C24.2062 76.5258 24.1231 76.4726 24.0433 76.4094C23.8871 76.2897 23.7308 76.1701 23.568 76.0637C23.4682 75.9972 23.3618 75.9407 23.2588 75.8775C23.1092 75.7878 22.9629 75.698 22.81 75.6182C22.697 75.5584 22.5773 75.5085 22.4609 75.452C22.3113 75.3822 22.1651 75.3124 22.0121 75.2492C21.9789 75.2359 21.949 75.2193 21.9157 75.206C23.0427 74.2885 23.7641 72.8889 23.7641 71.3231C23.7641 69.774 23.0527 68.3844 21.9424 67.4669H28.2753C28.7474 67.4669 29.1264 67.0846 29.1264 66.6158V58.5742C29.1264 58.1054 28.7474 57.7231 28.2753 57.7231L20.2303 57.7131C19.7583 57.7131 19.3793 58.0954 19.3793 58.5642V66.3599C19.1798 66.3366 18.9737 66.3167 18.7676 66.3167C16.7696 66.3167 15.041 67.4935 14.2398 69.1856L14.2365 31.9525L34.2625 31.9524ZM15.32 75.3257C15.1671 75.3889 15.0175 75.4554 14.8679 75.5285C14.7648 75.5784 14.6684 75.6382 14.5687 75.6914C14.459 75.7513 14.346 75.8078 14.2363 75.8743V73.4441C14.5587 74.1289 15.0341 74.7273 15.6126 75.1994C15.6026 75.2027 15.596 75.206 15.5893 75.2094C15.4962 75.2459 15.4098 75.2891 15.32 75.329L15.32 75.3257ZM15.463 71.3098C15.463 69.4947 16.9423 68.0154 18.7641 68.0154C20.5858 68.0154 22.0585 69.4914 22.0585 71.3098C22.0585 73.1249 20.5825 74.6109 18.7641 74.6109C16.949 74.6109 15.463 73.1283 15.463 71.3098ZM21.0812 65.7515V59.4119H27.4208V65.7515H21.0812ZM11.7095 83.3604C11.7095 81.4023 12.5307 79.5208 13.9634 78.1977C15.2733 76.9842 16.9787 76.3128 18.7638 76.3128C20.6454 76.3128 22.4107 77.0475 23.7471 78.3805C24.0131 78.6465 24.2524 78.9257 24.4618 79.2183C24.8973 79.81 25.2298 80.455 25.4592 81.1497C25.5356 81.3825 25.5988 81.6185 25.652 81.8578C25.7584 82.3399 25.8116 82.8452 25.8116 83.3604V85.7939L11.7098 85.7972L11.7095 83.3604ZM27.5134 83.3604C27.5134 83.0579 27.4968 82.7587 27.4668 82.4595C27.4569 82.3631 27.4403 82.2667 27.4236 82.1703C27.4037 82.014 27.3837 81.8545 27.3571 81.6982C27.3837 81.5852 27.4137 81.4755 27.4469 81.3658C27.4735 81.2727 27.4968 81.1763 27.53 81.0865C27.5766 80.9502 27.6297 80.8206 27.6863 80.6876C27.7195 80.6012 27.7527 80.5148 27.7893 80.4283C27.8525 80.2887 27.9289 80.1524 28.0054 80.0161C28.0453 79.9463 28.0785 79.8731 28.1184 79.8033C28.2381 79.6005 28.3711 79.4011 28.514 79.2083C29.8305 77.3932 31.9581 76.3094 34.2087 76.3094C34.4979 76.3094 34.7605 76.3261 35.0265 76.3626C36.599 76.5388 38.0782 77.2536 39.1919 78.3739C39.4545 78.6365 39.6872 78.9091 39.89 79.195C40.7843 80.4151 41.2564 81.8512 41.2564 83.3571V85.7906L27.5137 85.7939L27.5134 83.3604ZM42.9521 83.3604C42.9521 82.8751 43.002 82.403 43.0951 81.9442C43.7533 78.7395 46.599 76.3193 50.0065 76.3127C51.8914 76.3127 53.6633 77.0474 54.9964 78.3771C56.3262 79.7102 57.0609 81.4788 57.0609 83.3571V85.7906H42.9523V83.3571L42.9521 83.3604ZM58.7628 83.3604C58.7628 82.9648 58.7994 82.5725 58.8659 82.1869C59.0487 81.1132 59.4742 80.0959 60.1325 79.195C61.2827 77.6126 63.0546 76.582 65.0193 76.3626C65.2554 76.3294 65.5213 76.3128 65.8105 76.3128C67.6954 76.3128 69.4674 77.0475 70.8004 78.3806C71.0664 78.6465 71.3058 78.9258 71.5152 79.2183C71.6581 79.4144 71.7911 79.6172 71.9141 79.8233C71.954 79.8932 71.9872 79.9696 72.0271 80.0394C72.1036 80.1791 72.1801 80.3187 72.2465 80.4616C72.2864 80.5514 72.3197 80.6445 72.3563 80.7376C72.4094 80.8672 72.466 80.9969 72.5092 81.1298C72.5424 81.2296 72.5657 81.3359 72.5956 81.439C72.6322 81.5686 72.6754 81.6983 72.702 81.8313C72.7053 81.8413 72.7053 81.8479 72.7086 81.8579C72.815 82.3399 72.8682 82.8486 72.8682 83.3605V85.7939H58.7664V83.3605L58.7628 83.3604ZM88.3033 85.7939H74.5667V83.3604C74.5667 83.0612 74.55 82.7687 74.5201 82.4761C74.5102 82.3764 74.4902 82.2766 74.4769 82.1769C74.457 82.0173 74.437 81.8544 74.4071 81.6982C74.4337 81.5818 74.4669 81.4688 74.5002 81.3591C74.5268 81.2694 74.55 81.1796 74.58 81.0898C74.6265 80.9535 74.683 80.8172 74.7362 80.6843C74.7695 80.6012 74.7994 80.518 74.8359 80.4349C74.9024 80.292 74.9789 80.1524 75.0554 80.0127C75.0919 79.9462 75.1252 79.8764 75.1651 79.8099C75.2847 79.6072 75.4177 79.4077 75.5607 79.2149C76.8771 77.3998 79.0014 76.3161 81.2454 76.3161C83.0306 76.3161 84.7327 76.9843 86.0424 78.1976L86.2353 78.3838C87.565 79.7169 88.2997 81.4854 88.2997 83.3638V85.7972L88.3033 85.7939ZM77.9547 71.3092C77.9547 69.4941 79.4307 68.0147 81.2491 68.0147C83.0642 68.0147 84.5502 69.4907 84.5502 71.3092C84.5502 73.1243 83.0709 74.6103 81.2491 74.6103C79.4274 74.6103 77.9547 73.1276 77.9547 71.3092ZM78.932 65.7508H72.5924V59.4112H78.932V65.7508ZM84.7962 74.8297C84.8261 74.7998 84.8527 74.7666 84.8826 74.7367C84.9724 74.6403 85.0621 74.5405 85.1452 74.4375C85.1851 74.3876 85.2184 74.3377 85.2583 74.2879C85.3248 74.1948 85.3913 74.1017 85.4544 74.0086C85.491 73.9521 85.5242 73.8956 85.5575 73.8358C85.614 73.7393 85.6672 73.6429 85.717 73.5432C85.7337 73.51 85.7569 73.4767 85.7736 73.4402V75.8703C85.6605 75.8005 85.5408 75.744 85.4245 75.6775C85.3314 75.6276 85.2417 75.5744 85.1452 75.5246C84.989 75.4481 84.8327 75.3816 84.6732 75.3118C84.5901 75.2752 84.507 75.2353 84.4238 75.2021C84.4139 75.1988 84.4072 75.1955 84.3973 75.1921C84.4039 75.1888 84.4072 75.1822 84.4139 75.1788C84.5468 75.0691 84.6765 74.9528 84.7995 74.8265L84.7962 74.8297ZM85.7735 69.1816C85.7602 69.155 85.7436 69.1284 85.727 69.1018C85.6472 68.9456 85.5641 68.7927 85.4677 68.6431C85.4477 68.6132 85.4311 68.5799 85.4112 68.55C85.2981 68.3805 85.1718 68.2176 85.0388 68.0646C85.0056 68.0247 84.969 67.9882 84.9358 67.9516C84.8228 67.8286 84.7031 67.7089 84.5801 67.5992C84.5468 67.5693 84.5136 67.5361 84.477 67.5061C84.3208 67.3732 84.1579 67.2502 83.9883 67.1405C83.9518 67.1172 83.9119 67.0939 83.8753 67.074C83.729 66.9842 83.5828 66.9011 83.4298 66.828C83.3833 66.8047 83.3334 66.7814 83.2869 66.7582C83.0974 66.6717 82.9046 66.5986 82.7018 66.5354C82.6752 66.5254 82.6453 66.5221 82.6154 66.5121C82.4359 66.4623 82.2563 66.4224 82.0702 66.3892C82.0137 66.3792 81.9571 66.3692 81.9006 66.3626C81.6845 66.336 81.4685 66.316 81.2457 66.316C81.0529 66.316 80.8634 66.3293 80.6773 66.3493C80.664 66.3526 80.6473 66.3493 80.634 66.3526V58.5636C80.634 58.0949 80.2551 57.7125 79.783 57.7125H71.7413C71.2693 57.7125 70.8903 58.0949 70.8903 58.5636V66.6053C70.8903 67.074 71.2693 67.4563 71.7413 67.4563H78.0743C77.9413 67.566 77.8183 67.6824 77.6986 67.802C77.6587 67.8419 77.6222 67.8851 77.5856 67.9284C77.5091 68.0115 77.4293 68.0979 77.3595 68.1877C77.3163 68.2409 77.2798 68.294 77.2399 68.3506C77.1767 68.4337 77.1169 68.5168 77.0603 68.6065C77.0205 68.6664 76.9839 68.7295 76.9473 68.7894C76.8975 68.8758 76.8476 68.9622 76.801 69.0553C76.7678 69.1185 76.7379 69.185 76.7046 69.2515C76.6614 69.3446 76.6248 69.4376 76.5883 69.534C76.5617 69.6005 76.5351 69.6703 76.5118 69.7368C76.4786 69.8366 76.4487 69.9396 76.4221 70.0427C76.4054 70.1092 76.3855 70.1757 76.3689 70.2421C76.3423 70.3585 76.3257 70.4748 76.309 70.5945C76.2991 70.6544 76.2891 70.7109 76.2824 70.7707C76.2625 70.9502 76.2525 71.1298 76.2525 71.3159C76.2525 71.5021 76.2658 71.6849 76.2824 71.8644C76.2891 71.9243 76.3024 71.9841 76.309 72.044C76.3257 72.1636 76.3456 72.28 76.3689 72.3963C76.3855 72.4628 76.4021 72.5293 76.4221 72.5991C76.4487 72.7022 76.4786 72.8086 76.5118 72.9083C76.5351 72.9781 76.5617 73.0446 76.5883 73.1111C76.6248 73.2075 76.6647 73.3039 76.708 73.397C76.7379 73.4635 76.7678 73.5299 76.801 73.5931C76.8476 73.6862 76.8974 73.776 76.9506 73.8624C76.9872 73.9222 77.0238 73.9854 77.0603 74.0419C77.1202 74.1317 77.1833 74.2214 77.2498 74.3079C77.2897 74.3611 77.3263 74.4109 77.3662 74.4641C77.4493 74.5672 77.5391 74.6669 77.6321 74.7633C77.6587 74.7899 77.682 74.8231 77.7119 74.8497C77.8316 74.9694 77.9579 75.0858 78.0909 75.1921C78.0976 75.1955 78.1009 75.2021 78.1075 75.2054C78.0344 75.232 77.9712 75.2719 77.8981 75.3018C77.6321 75.4149 77.3695 75.5346 77.1135 75.6708C76.9972 75.734 76.8842 75.8038 76.7678 75.8736C76.5484 76.0033 76.3356 76.1429 76.1295 76.2925C76.0165 76.3756 75.9068 76.4554 75.7971 76.5418C75.591 76.7081 75.3948 76.8842 75.202 77.0671C75.1123 77.1535 75.0225 77.23 74.9394 77.3197C74.6734 77.599 74.4208 77.8915 74.1914 78.2074C73.9687 78.5032 73.7792 78.8157 73.5997 79.1348C73.5797 79.1681 73.5531 79.2013 73.5365 79.2346C73.5166 79.2013 73.4933 79.1681 73.4733 79.1348C73.2972 78.8223 73.111 78.5132 72.8949 78.2207C72.6356 77.8583 72.3364 77.5092 72.0039 77.1801C71.7912 76.9673 71.5651 76.7679 71.3357 76.5784C71.2626 76.5185 71.1828 76.4653 71.1064 76.4088C70.9468 76.2858 70.7839 76.1628 70.6177 76.0531C70.5213 75.99 70.4215 75.9334 70.3218 75.8736C70.1689 75.7805 70.0159 75.6874 69.8564 75.6043C69.7433 75.5445 69.6303 75.4946 69.514 75.4414C69.361 75.3716 69.2114 75.2985 69.0585 75.2386C69.0253 75.2253 68.9954 75.2087 68.9621 75.1954C68.9654 75.1921 68.9688 75.1888 68.9721 75.1854C69.1051 75.0757 69.2347 74.9594 69.3544 74.8397C69.381 74.8131 69.4043 74.7832 69.4309 74.7533C69.5239 74.6569 69.6137 74.5571 69.6968 74.4541C69.7367 74.4042 69.7733 74.3543 69.8098 74.3012C69.8763 74.2147 69.9395 74.125 69.9993 74.0352C70.0392 73.9754 70.0725 73.9155 70.109 73.8557C70.1622 73.7659 70.2121 73.6762 70.262 73.5831C70.2952 73.5199 70.3251 73.4534 70.355 73.387C70.3983 73.2939 70.4382 73.1975 70.4747 73.1011C70.5013 73.0346 70.5246 72.9681 70.5479 72.8983C70.5811 72.7952 70.611 72.6922 70.6376 72.5891C70.6542 72.5226 70.6742 72.4561 70.6908 72.3863C70.7174 72.27 70.734 72.1503 70.7506 72.0339C70.7606 71.9741 70.7706 71.9176 70.7772 71.8577C70.7972 71.6782 70.8072 71.4954 70.8072 71.3092C70.8072 69.5972 69.9495 68.0946 68.633 67.1937C68.6197 67.1837 68.6097 67.1737 68.5964 67.1671C68.52 67.1139 68.4369 67.0707 68.3571 67.0208C68.2939 66.9842 68.2341 66.9443 68.1709 66.9078C68.131 66.8845 68.0878 66.8679 68.0446 66.8479C67.9382 66.7947 67.8318 66.7415 67.7188 66.695C67.7088 66.6917 67.6955 66.6884 67.6856 66.6817C67.2401 66.4989 66.7647 66.3792 66.2693 66.336C66.2394 66.3326 66.2062 66.3326 66.1762 66.3326C66.0532 66.3227 65.9302 66.3127 65.8006 66.3127C65.7906 66.3127 65.7806 66.316 65.7707 66.316C65.7607 66.316 65.7507 66.3127 65.7407 66.316L65.7507 31.9518H85.7766V69.1849L85.7735 69.1816Z" fill="#171717"/>
<path d="M71.7495 44.0543H79.7911C80.2632 44.0543 80.6422 43.672 80.6422 43.2033V35.1616C80.6422 34.6929 80.2632 34.3105 79.7911 34.3105H71.7495C71.2774 34.3105 70.8984 34.6929 70.8984 35.1616V43.2033C70.8984 43.672 71.2774 44.0543 71.7495 44.0543ZM72.6005 36.0126H78.9401V42.3522H72.6005V36.0126Z" fill="#171717"/>
<path d="M71.7495 55.7555H79.7911C80.2632 55.7555 80.6422 55.3732 80.6422 54.9044V46.8628C80.6422 46.394 80.2632 46.0117 79.7911 46.0117H71.7495C71.2774 46.0117 70.8984 46.394 70.8984 46.8628V54.9044C70.8984 55.3732 71.2774 55.7555 71.7495 55.7555ZM72.6005 47.7138H78.9401V54.0534H72.6005V47.7138Z" fill="#171717"/>
<path d="M40.5698 33.2329H47.6807C48.1527 33.2329 48.5317 32.8506 48.5317 32.3818V25.271C48.5317 24.8022 48.1527 24.4199 47.6807 24.4199H40.5698C40.0977 24.4199 39.7188 24.8022 39.7188 25.271V32.3818C39.7188 32.8506 40.0977 33.2329 40.5698 33.2329ZM41.4208 26.122H46.8296V31.5308H41.4208V26.122Z" fill="#171717"/>
<path d="M52.3276 33.2329H59.4385C59.9106 33.2329 60.2895 32.8506 60.2895 32.3818V25.271C60.2895 24.8022 59.9106 24.4199 59.4385 24.4199H52.3276C51.8555 24.4199 51.4766 24.8022 51.4766 25.271V32.3818C51.4766 32.8506 51.8555 33.2329 52.3276 33.2329ZM53.1786 26.122H58.5874V31.5308H53.1786V26.122Z" fill="#171717"/>
<path d="M40.5698 43.6743H47.6807C48.1527 43.6743 48.5317 43.292 48.5317 42.8233V35.7124C48.5317 35.2436 48.1527 34.8613 47.6807 34.8613H40.5698C40.0977 34.8613 39.7188 35.2436 39.7188 35.7124V42.8233C39.7188 43.292 40.0977 43.6743 40.5698 43.6743ZM41.4208 36.5634H46.8296V41.9722H41.4208V36.5634Z" fill="#171717"/>
<path d="M52.3276 43.6743H59.4385C59.9106 43.6743 60.2895 43.292 60.2895 42.8233V35.7124C60.2895 35.2436 59.9106 34.8613 59.4385 34.8613H52.3276C51.8555 34.8613 51.4766 35.2436 51.4766 35.7124V42.8233C51.4766 43.292 51.8555 43.6743 52.3276 43.6743ZM53.1786 36.5634H58.5874V41.9722H53.1786V36.5634Z" fill="#171717"/>
</svg>
