<svg width="21" height="20" viewBox="0 0 21 20" fill="none" xmlns="http://www.w3.org/2000/svg">
<g clip-path="url(#clip0_7604_10173)">
<path d="M7.166 14.1666L10.4993 17.4999M10.4993 17.4999L13.8327 14.1666M10.4993 17.4999V9.99994M17.8993 15.0749C18.6238 14.5655 19.1671 13.8384 19.4504 12.9992C19.7337 12.1601 19.7422 11.2525 19.4747 10.4081C19.2072 9.56381 18.6776 8.82669 17.9627 8.30375C17.2479 7.78081 16.385 7.49925 15.4993 7.49994H14.4493C14.1987 6.52317 13.7297 5.61598 13.0778 4.84668C12.4258 4.07737 11.6078 3.46599 10.6853 3.05857C9.76289 2.65115 8.76004 2.4583 7.75227 2.49454C6.74451 2.53078 5.75809 2.79517 4.86729 3.2678C3.97649 3.74043 3.20452 4.40898 2.60949 5.22314C2.01446 6.03729 1.61188 6.97582 1.43205 7.96807C1.25223 8.96032 1.29984 9.98044 1.57132 10.9516C1.84279 11.9228 2.33105 12.8198 2.99933 13.5749" stroke="white" stroke-width="1.67" stroke-linecap="round" stroke-linejoin="round"/>
</g>
<defs>
<clipPath id="clip0_7604_10173">
<rect width="20" height="20" fill="white" transform="translate(0.5)"/>
</clipPath>
</defs>
</svg>
