<svg width="49" height="48" viewBox="0 0 49 48" fill="none" xmlns="http://www.w3.org/2000/svg">
<path fill-rule="evenodd" clip-rule="evenodd" d="M24.9858 0C11.731 0 0.98584 10.7452 0.98584 24C0.98584 37.2548 11.731 48 24.9858 48C38.2407 48 48.9858 37.2548 48.9858 24C48.9858 10.7452 38.2407 0 24.9858 0ZM37.5238 21.4091C37.6969 22.2499 37.7851 23.1162 37.7851 23.9825C37.7851 24.8481 37.6969 25.7125 37.5238 26.5551C37.355 27.3778 37.105 28.1854 36.7775 28.9574C36.4575 29.7158 36.0606 30.4466 35.5969 31.1281C35.14 31.8054 34.6137 32.4407 34.0355 33.0199C33.4561 33.5966 32.8186 34.1214 32.1417 34.5802C31.4579 35.0408 30.726 35.4371 29.9672 35.7586C29.1941 36.0844 28.3846 36.334 27.5627 36.5025C26.719 36.6761 25.8514 36.7647 24.9845 36.7647C24.1169 36.7647 23.2494 36.6761 22.4069 36.5025C21.5837 36.334 20.7743 36.0844 20.0017 35.7586C19.243 35.4371 18.5104 35.0408 17.8266 34.5802C17.1497 34.1215 16.5122 33.5966 15.934 33.0199C15.3553 32.4407 14.829 31.8054 14.3714 31.1281C13.9102 30.4466 13.5126 29.7157 13.1914 28.9574C12.8638 28.1854 12.6132 27.3777 12.4438 26.5551C12.2726 25.7125 12.1851 24.8481 12.1851 23.9825C12.1851 23.1162 12.2725 22.2499 12.4439 21.4091C12.6133 20.5865 12.8639 19.7776 13.1914 19.0068C13.5127 18.2479 13.9102 17.5165 14.3715 16.8349C14.829 16.1571 15.3553 15.5229 15.9341 14.9431C16.5122 14.3664 17.1498 13.8428 17.8267 13.3847C18.5104 12.9222 19.243 12.5259 20.0018 12.2038C20.7743 11.8773 21.5837 11.6271 22.4069 11.4598C23.2495 11.2876 24.117 11.2002 24.9845 11.2002C25.8514 11.2002 26.719 11.2876 27.5628 11.4598C28.3847 11.6271 29.1941 11.8774 29.9673 12.2038C30.726 12.5258 31.458 12.9222 32.1417 13.3847C32.8186 13.8428 33.4562 14.3664 34.0356 14.9431C34.6137 15.5229 35.1401 16.1571 35.5969 16.8349C36.0606 17.5165 36.4575 18.248 36.7775 19.0068C37.105 19.7776 37.355 20.5865 37.5238 21.4091Z" fill="black"/>
<path fill-rule="evenodd" clip-rule="evenodd" d="M32.2034 15.7913L32.2044 15.7899C30.2799 14.0953 27.7529 13.0675 24.9853 13.0675C24.0971 13.0675 23.2352 13.1748 22.4095 13.3733L22.4273 13.3971C22.6861 13.7432 24.6779 16.4073 26.4959 19.7406C30.5868 18.2092 32.1518 15.8685 32.2034 15.7913ZM33.4264 17.049C33.3838 17.1098 31.6255 19.6183 27.3373 21.3671C27.591 21.8877 27.8367 22.4175 28.0635 22.9499C28.1442 23.1409 28.223 23.3282 28.2998 23.5154C31.9831 23.0526 35.6128 23.8075 35.8998 23.8672L35.9127 23.8698C35.8877 21.2822 34.9608 18.9074 33.427 17.0481L33.4264 17.049ZM28.966 25.238C30.3999 29.1725 30.9824 32.3768 31.0937 33.0347C33.5482 31.3807 35.2914 28.7544 35.7777 25.7123C35.5527 25.6399 32.4944 24.6731 28.966 25.238ZM26.9178 25.7435C28.456 29.7355 29.091 33.0783 29.2529 34.032C27.941 34.5893 26.4991 34.8971 24.9853 34.8971C22.4501 34.8971 20.1225 34.0276 18.2667 32.5865C18.2895 32.5371 20.3957 28.0124 26.8453 25.7673C26.8605 25.7617 26.8758 25.7569 26.8913 25.752L26.9178 25.7435ZM25.2859 22.0799C25.599 22.6928 25.8984 23.3145 26.1728 23.9348C26.0291 23.976 25.884 24.0185 25.7415 24.0659C19.8425 25.9707 16.851 31.2702 16.8548 31.2759C15.1135 29.3429 14.054 26.7864 14.054 23.9823C14.054 23.9013 14.0567 23.8222 14.0594 23.7423C14.0606 23.7064 14.0618 23.6704 14.0628 23.634C14.2565 23.6415 19.6575 23.7625 25.2859 22.0799ZM24.3802 20.3991C22.4883 17.0425 20.4669 14.3032 20.3213 14.1091C17.2729 15.5465 14.9978 18.3513 14.2884 21.7316L14.2989 21.7317C14.6725 21.7352 19.187 21.7769 24.3802 20.3991Z" fill="black"/>
</svg>
