<svg width="39" height="40" viewBox="0 0 39 40" fill="none" xmlns="http://www.w3.org/2000/svg">
<path d="M16 16L14 14L14.0285 14.0254L16 16Z" fill="black"/>
<path d="M30.5297 16.466C30.4015 16.3103 30.2658 16.1623 30.1263 16.0221L25.839 11.5946C25.4573 11.2003 24.9618 10.9449 24.4271 10.867C23.8925 10.789 23.3479 10.8927 22.8753 11.1624L19.6326 7.80968C19.1268 7.29105 18.443 7 17.7303 7C17.0176 7 16.3338 7.29105 15.828 7.80968C15.4972 8.14849 15.2591 8.57169 15.138 9.03629C14.6077 8.57491 13.9252 8.343 13.2332 8.38898C12.5413 8.43496 11.8932 8.75529 11.4245 9.28305C10.9558 9.8108 10.7027 10.5052 10.7181 11.2211C10.7334 11.937 11.016 12.6192 11.5069 13.125L11.6615 13.2846C11.2103 13.4167 10.8004 13.6681 10.4722 14.0141C10.1441 14.3601 9.90917 14.7886 9.79069 15.2571C9.67221 15.7257 9.6743 16.2181 9.79675 16.6856C9.9192 17.1531 10.1578 17.5794 10.4888 17.9224L10.9564 18.4052C10.5119 18.5307 10.1073 18.7752 9.7837 19.114C9.28174 19.6356 9 20.3411 9 21.0765C9 21.8119 9.28174 22.5175 9.7837 23.0391L16.5708 30.0483C18.3805 31.9269 20.8373 32.9882 23.4032 32.9999H23.456C24.7102 33.0043 25.9528 32.7518 27.1119 32.2572C28.271 31.7626 29.3238 31.0357 30.2092 30.1184C31.9401 28.3151 32.9376 25.8964 32.9972 23.358C33.0568 20.8196 32.174 18.3538 30.5297 16.466ZM29.2213 29.1021C28.4594 29.8946 27.5512 30.5211 26.5505 30.9445C25.5498 31.3679 24.477 31.5796 23.3957 31.567C22.3046 31.5643 21.2247 31.3393 20.218 30.905C19.2112 30.4707 18.2973 29.8355 17.5286 29.0359L10.7414 22.0267C10.6199 21.901 10.524 21.7515 10.4592 21.587C10.3944 21.4225 10.3622 21.2463 10.3644 21.0687C10.3623 20.8906 10.3946 20.7138 10.4594 20.5487C10.5241 20.3836 10.62 20.2334 10.7414 20.1069C10.9931 19.8627 11.3255 19.7267 11.6709 19.7267C12.0163 19.7267 12.3487 19.8627 12.6004 20.1069L17.3476 25.0017C17.4783 25.1226 17.6489 25.1872 17.8243 25.1823C17.9998 25.1773 18.1667 25.1031 18.2908 24.975C18.4149 24.8468 18.4867 24.6744 18.4915 24.4933C18.4963 24.3121 18.4337 24.1359 18.3166 24.0009L13.5883 19.114L11.4616 16.9177C11.2155 16.663 11.0772 16.3178 11.0772 15.9579C11.0772 15.598 11.2155 15.2528 11.4616 14.998C11.7125 14.752 12.0452 14.6149 12.3911 14.6149C12.737 14.6149 13.0697 14.752 13.3205 14.998L19.1462 21.0142C19.2752 21.1469 19.4499 21.2213 19.632 21.2209C19.8141 21.2206 19.9886 21.1455 20.1171 21.0123C20.2456 20.879 20.3176 20.6986 20.3173 20.5105C20.3169 20.3225 20.2442 20.1423 20.1152 20.0096L12.4759 12.1203C12.2316 11.8646 12.0946 11.5197 12.0946 11.1605C12.0946 10.8012 12.2316 10.4564 12.4759 10.2006C12.7278 9.95524 13.061 9.81859 13.4073 9.81859C13.7535 9.81859 14.0867 9.95524 14.3386 10.2006L15.8469 11.7582L17.5814 13.5494L20.9749 17.054C21.1039 17.1873 21.2789 17.2621 21.4613 17.2621C21.6438 17.2621 21.8187 17.1873 21.9478 17.054C22.0768 16.9208 22.1492 16.7401 22.1492 16.5517C22.1492 16.3633 22.0768 16.1826 21.9478 16.0494L18.5542 12.5448L16.8008 10.7341C16.5547 10.4793 16.4165 10.1341 16.4165 9.7742C16.4165 9.4143 16.5547 9.0691 16.8008 8.81433C17.0517 8.56836 17.3844 8.43123 17.7303 8.43123C18.0762 8.43123 18.4089 8.56836 18.6598 8.81433L21.9025 12.1671C21.6419 12.6552 21.5419 13.2176 21.6174 13.7695C21.6928 14.3215 21.9398 14.8332 22.321 15.2277L24.1008 17.0657C23.5577 17.7827 23.2696 18.6706 23.2847 19.5808C23.2998 20.491 23.6172 21.3682 24.1837 22.0656C24.1969 22.0831 24.2121 22.0988 24.229 22.1123C24.3487 22.2393 24.5106 22.3147 24.682 22.3234C24.8534 22.332 25.0216 22.2733 25.1528 22.1591C25.2223 22.0994 25.2797 22.0261 25.3217 21.9434C25.3637 21.8607 25.3895 21.7703 25.3976 21.6773C25.4056 21.5843 25.3958 21.4906 25.3687 21.4015C25.3416 21.3124 25.2977 21.2298 25.2395 21.1583C24.8394 20.6657 24.6336 20.0357 24.6629 19.3935C24.6923 18.7513 24.9547 18.1441 25.3979 17.6926C25.4211 17.666 25.4463 17.6412 25.4733 17.6187C25.5517 17.5572 25.6165 17.4791 25.6633 17.3897C25.7101 17.3002 25.7379 17.2015 25.7447 17.1C25.7514 16.9986 25.7371 16.8968 25.7027 16.8016C25.6682 16.7063 25.6144 16.6198 25.5449 16.5478L23.2826 14.2114C23.1317 13.9863 23.0622 13.7136 23.0862 13.4409C23.1101 13.1682 23.2261 12.9129 23.4138 12.7196C23.6015 12.5262 23.849 12.4071 24.1131 12.3829C24.3771 12.3588 24.641 12.4313 24.8587 12.5876L29.1346 17.0229C29.2515 17.1436 29.3608 17.2643 29.4739 17.4123C30.8828 19.0268 31.6414 21.1361 31.5944 23.3089C31.5475 25.4818 30.6986 27.5541 29.2213 29.1021Z" fill="black"/>
<path d="M30 22.5009C30.001 22.9257 29.9252 23.3466 29.7769 23.7393C29.6286 24.1319 29.4108 24.4885 29.136 24.7884C29.0102 24.9231 28.8416 24.9989 28.6657 25C28.5342 25.0005 28.4055 24.9581 28.2959 24.8783C28.1864 24.7985 28.101 24.6849 28.0506 24.5518C28.0002 24.4187 27.9871 24.2723 28.0129 24.131C28.0387 23.9897 28.1022 23.86 28.1955 23.7584C28.4987 23.4241 28.6688 22.972 28.6688 22.5009C28.6688 22.0297 28.4987 21.5776 28.1955 21.2433C28.0707 21.1067 28.0007 20.9215 28.0007 20.7283C28.0007 20.5352 28.0707 20.3499 28.1955 20.2133C28.3202 20.0767 28.4893 20 28.6657 20C28.8421 20 29.0113 20.0767 29.136 20.2133C29.4108 20.5133 29.6286 20.8698 29.7769 21.2625C29.9252 21.6551 30.001 22.076 30 22.5009Z" fill="black"/>
<path d="M27.2625 11C27.1661 11 27.0708 10.981 26.9818 10.9441C26.8928 10.9072 26.8119 10.8532 26.7438 10.785C26.6757 10.7169 26.6217 10.636 26.5848 10.547C26.5479 10.4579 26.529 10.3625 26.529 10.2661C26.5279 9.79056 26.3386 9.33477 26.0025 8.9985C25.6664 8.66222 25.2108 8.47284 24.7355 8.47177C24.5404 8.47177 24.3534 8.39424 24.2154 8.25623C24.0775 8.11823 24 7.93105 24 7.73589C24 7.54072 24.0775 7.35354 24.2154 7.21554C24.3534 7.07753 24.5404 7 24.7355 7C25.601 7.00107 26.4307 7.34552 27.0427 7.9578C27.6547 8.57009 27.9989 9.40022 28 10.2661C28 10.3628 27.9809 10.4586 27.9438 10.5479C27.9067 10.6372 27.8523 10.7183 27.7837 10.7865C27.7152 10.8547 27.6339 10.9086 27.5444 10.9453C27.4549 10.9819 27.3591 11.0005 27.2625 11Z" fill="black"/>
<path d="M29.2948 10.9998C29.1118 10.9998 28.9363 10.9269 28.8068 10.7971C28.6774 10.6674 28.6047 10.4914 28.6047 10.3078C28.6037 9.26782 28.1911 8.27076 27.4574 7.53572C26.7237 6.80067 25.729 6.38779 24.6919 6.38779C24.5084 6.38779 24.3324 6.31469 24.2027 6.18456C24.0729 6.05443 24 5.87793 24 5.6939C24 5.50986 24.0729 5.33337 24.2027 5.20324C24.3324 5.07311 24.5084 5 24.6919 5C26.0997 5 27.4499 5.56082 28.4453 6.55908C29.4408 7.55735 30 8.91128 30 10.323C29.998 10.4139 29.9782 10.5035 29.9417 10.5867C29.9052 10.6699 29.8527 10.7451 29.7872 10.808C29.7217 10.8708 29.6445 10.9201 29.56 10.953C29.4755 10.9859 29.3854 11.0018 29.2948 10.9998Z" fill="black"/>
<path d="M10.2645 28C9.39902 27.9989 8.5693 27.6547 7.95732 27.0427C7.34534 26.4307 7.00107 25.601 7 24.7355C7 24.5404 7.07749 24.3534 7.21543 24.2154C7.35336 24.0775 7.54045 24 7.73552 24C7.93059 24 8.11767 24.0775 8.25561 24.2154C8.39354 24.3534 8.47103 24.5404 8.47103 24.7355C8.4721 25.2108 8.66139 25.6664 8.9975 26.0025C9.33361 26.3386 9.78916 26.5279 10.2645 26.529C10.4596 26.529 10.6466 26.6065 10.7846 26.7444C10.9225 26.8823 11 27.0694 11 27.2645C11 27.4596 10.9225 27.6466 10.7846 27.7846C10.6466 27.9225 10.4596 28 10.2645 28Z" fill="black"/>
<path d="M10.3081 31C8.90027 31 7.55015 30.4408 6.55469 29.4453C5.55924 28.4499 5 27.0997 5 25.6919C5 25.5084 5.0729 25.3324 5.20267 25.2027C5.33243 25.0729 5.50843 25 5.69194 25C5.87546 25 6.05146 25.0729 6.18122 25.2027C6.31099 25.3324 6.38389 25.5084 6.38389 25.6919C6.38239 26.2077 6.48286 26.7187 6.67954 27.1954C6.87621 27.6722 7.16521 28.1054 7.5299 28.4701C7.89459 28.8348 8.32779 29.1238 8.80457 29.3205C9.28135 29.5171 9.79231 29.6176 10.3081 29.6161C10.4916 29.6161 10.6676 29.689 10.7973 29.8188C10.9271 29.9485 11 30.1245 11 30.3081C11 30.4916 10.9271 30.6676 10.7973 30.7973C10.6676 30.9271 10.4916 31 10.3081 31Z" fill="black"/>
</svg>
