<svg width="230" height="176" viewBox="0 0 230 176" fill="none" xmlns="http://www.w3.org/2000/svg">
<path d="M207.899 138.719L216.497 51.2663C216.511 51.142 216.468 51.0245 216.461 50.9035C216.454 50.7289 216.458 50.5542 216.411 50.3829C216.365 50.2184 216.282 50.0739 216.206 49.9228C216.146 49.8019 216.126 49.6742 216.046 49.5634C216.03 49.5399 216 49.5264 215.983 49.5029C215.963 49.4794 215.96 49.4458 215.94 49.4257C215.847 49.3115 215.718 49.2443 215.605 49.1469C215.486 49.0461 215.383 48.9286 215.25 48.8513C215.121 48.7774 214.978 48.7438 214.836 48.6935C214.67 48.633 214.514 48.5625 214.341 48.5423C214.315 48.5389 214.292 48.5222 214.265 48.5188L90.0437 36.0005C90.0138 35.9972 89.9873 36.0106 89.9574 36.0073C89.7916 35.9972 89.629 36.0308 89.4632 36.0543C89.3006 36.0778 89.1348 36.0812 88.9822 36.1315C88.8794 36.1685 88.7898 36.239 88.6903 36.2894C88.4979 36.3902 88.3121 36.4842 88.1496 36.6286C88.133 36.6454 88.1065 36.6488 88.0899 36.6656C88.0136 36.7395 87.9771 36.8402 87.9107 36.9209C87.7847 37.072 87.662 37.2198 87.5757 37.4012C87.4994 37.5624 87.4662 37.7337 87.4264 37.905C87.3966 38.0225 87.3335 38.1267 87.3203 38.2543L78.7222 125.704C78.689 126.033 78.7222 126.362 78.8151 126.681C78.9079 126.997 79.0639 127.296 79.2728 127.558C79.4984 127.837 79.7837 128.048 80.0955 128.203C80.2116 128.26 80.3343 128.274 80.4537 128.314C80.6196 128.368 80.7755 128.448 80.948 128.465L205.169 140.987C205.249 140.997 205.335 141 205.415 141C205.697 141 205.979 140.95 206.247 140.856C206.516 140.758 206.768 140.617 206.994 140.429C207.249 140.217 207.458 139.955 207.614 139.663C207.773 139.364 207.87 139.049 207.899 138.719ZM91.7354 44.2598L128.334 83.6418L84.2718 120.159L91.7354 44.2598ZM146.85 96.2205L96.1705 41.6736L207.166 52.8584L146.85 96.2205ZM131.75 87.3197L144.714 101.269C144.85 101.413 145.022 101.49 145.178 101.598C145.281 101.668 145.371 101.759 145.484 101.81C145.815 101.967 146.167 102.061 146.525 102.061C146.804 102.061 147.082 102.001 147.351 101.904C147.437 101.873 147.514 101.823 147.597 101.783C147.719 101.719 147.849 101.682 147.965 101.595L163.386 90.5038L199.686 135.364L87.4231 124.052L131.75 87.3197ZM167.46 87.5816L211.008 56.2743L203.547 132.18L167.46 87.5816Z" fill="#814AEB"/>
<path d="M69.8919 60.7784H15.9879C14.6146 60.7784 13.5 61.907 13.5 63.2975C13.5 64.6881 14.6146 65.8166 15.9879 65.8166H69.8919C71.2652 65.8166 72.3798 64.6881 72.3798 63.2975C72.3798 61.907 71.2652 60.7784 69.8919 60.7784Z" fill="#814AEB"/>
<path d="M69.8919 77.5724H30.5005C29.1272 77.5724 28.0126 78.701 28.0126 80.0915C28.0126 81.4821 29.1272 82.6106 30.5005 82.6106H69.8919C71.2652 82.6106 72.3798 81.4821 72.3798 80.0915C72.3798 78.701 71.2652 77.5724 69.8919 77.5724Z" fill="#814AEB"/>
<path d="M69.8919 94.3664H42.9399C41.5666 94.3664 40.452 95.495 40.452 96.8855C40.452 98.2761 41.5666 99.4046 42.9399 99.4046H69.8919C71.2652 99.4046 72.3798 98.2761 72.3798 96.8855C72.3798 95.495 71.2652 94.3664 69.8919 94.3664Z" fill="#814AEB"/>
<path d="M69.8919 111.16H56.4142C55.0409 111.16 53.9263 112.289 53.9263 113.68C53.9263 115.07 55.0409 116.199 56.4142 116.199H69.8919C71.2652 116.199 72.3798 115.07 72.3798 113.68C72.3798 112.289 71.2652 111.16 69.8919 111.16Z" fill="#814AEB"/>
</svg>
