<svg width="24" height="20" viewBox="0 0 24 20" fill="none" xmlns="http://www.w3.org/2000/svg">
<path d="M23 2.06209V8.06209M23 8.06209H17M23 8.06209L18.36 3.70209C17.2853 2.6268 15.9556 1.84129 14.4952 1.41886C13.0348 0.996428 11.4911 0.950838 10.0083 1.28635C8.52547 1.62185 7.1518 2.32752 6.01547 3.33751C4.87913 4.34749 4.01717 5.62887 3.51 7.06209M1 18.0621V12.0621M1 12.0621H7M1 12.0621L5.64 16.4221C6.71475 17.4974 8.04437 18.2829 9.50481 18.7053C10.9652 19.1277 12.5089 19.1733 13.9917 18.8378C15.4745 18.5023 16.8482 17.7967 17.9845 16.7867C19.1209 15.7767 19.9828 14.4953 20.49 13.0621" stroke="#101828" stroke-width="1.5" stroke-linecap="round" stroke-linejoin="round"/>
</svg>
