<svg width="76" height="75" viewBox="0 0 76 75" fill="none" xmlns="http://www.w3.org/2000/svg">
<path fill-rule="evenodd" clip-rule="evenodd" d="M37.9146 0H38.0854C58.7489 0 75.5 16.7511 75.5 37.4146V37.5854C75.5 58.2489 58.7489 75 38.0854 75H37.9146C17.2511 75 0.5 58.2489 0.5 37.5854V37.4146C0.5 16.7511 17.2511 0 37.9146 0ZM26.3967 15.2584H49.6038C56.0152 15.2584 61.231 20.4742 61.231 26.8856V48.1167C61.231 54.5281 56.0152 59.7439 49.6038 59.7439H26.3967C19.9853 59.7439 14.7695 54.5281 14.7695 48.1167V26.8856C14.7695 20.4742 19.9853 15.2584 26.3967 15.2584ZM26.3967 19.3601C22.2477 19.3601 18.8712 22.7366 18.8712 26.8856V48.1167C18.8712 52.2657 22.2477 55.6422 26.3967 55.6422H49.6038C53.7528 55.6422 57.1293 52.2657 57.1293 48.1167V26.8856C57.1293 22.7366 53.7528 19.3601 49.6038 19.3601H26.3967ZM37.9999 48.3136C43.962 48.3136 48.8152 43.463 48.8152 37.4983C48.8152 31.5336 43.9646 26.6831 37.9999 26.6831C32.0352 26.6831 27.1847 31.5336 27.1847 37.4983C27.1847 43.463 32.0352 48.3136 37.9999 48.3136ZM37.9999 30.7874C41.7022 30.7874 44.7135 33.7986 44.7135 37.5009C44.7135 41.2033 41.7022 44.2145 37.9999 44.2145C34.2976 44.2145 31.2864 41.2033 31.2864 37.5009C31.2864 33.7986 34.2976 30.7874 37.9999 30.7874ZM52.7298 25.5165C52.7298 27.1246 51.4213 28.4305 49.8158 28.4305C48.2077 28.4305 46.9018 27.1246 46.9018 25.5165C46.9018 23.9084 48.2077 22.6025 49.8158 22.6025C51.4239 22.6025 52.7298 23.9084 52.7298 25.5165Z" fill="url(#paint0_linear_8847_6901)"/>
<defs>
<linearGradient id="paint0_linear_8847_6901" x1="11.4571" y1="64.0428" x2="64.5428" y2="10.9598" gradientUnits="userSpaceOnUse">
<stop stop-color="#FAAD4F"/>
<stop offset="0.35" stop-color="#DD2A7B"/>
<stop offset="0.62" stop-color="#9537B0"/>
<stop offset="1" stop-color="#515BD4"/>
</linearGradient>
</defs>
</svg>
