<svg width="49" height="48" viewBox="0 0 49 48" fill="none" xmlns="http://www.w3.org/2000/svg">
<path fill-rule="evenodd" clip-rule="evenodd" d="M24.9858 0C11.731 0 0.98584 10.7452 0.98584 24C0.98584 37.2548 11.731 48 24.9858 48C38.2407 48 48.9858 37.2548 48.9858 24C48.9858 10.7452 38.2407 0 24.9858 0ZM12.5075 19.8778H17.9464V36.2196H12.5075V19.8778ZM18.3038 14.8227C18.2685 13.2204 17.1227 12 15.2621 12C13.4015 12 12.1851 13.2204 12.1851 14.8227C12.1851 16.3918 13.3655 17.6473 15.1915 17.6473H15.2262C17.1227 17.6473 18.3038 16.3918 18.3038 14.8227ZM31.2986 19.4941C34.8776 19.4941 37.5608 21.8303 37.5608 26.8497L37.5606 36.2196H32.1219V27.4768C32.1219 25.2808 31.3349 23.7823 29.3659 23.7823C27.8633 23.7823 26.9683 24.7925 26.5752 25.7682C26.4314 26.1179 26.3961 26.6051 26.3961 27.0935V36.22H20.9565C20.9565 36.22 21.0282 21.4117 20.9565 19.8783H26.3961V22.193C27.118 21.0803 28.4109 19.4941 31.2986 19.4941Z" fill="black"/>
</svg>
