<svg width="100" height="100" viewBox="0 0 100 100" fill="none" xmlns="http://www.w3.org/2000/svg">
<path d="M38.2563 34.736C40.5925 34.7365 42.8765 34.0441 44.8193 32.7466C46.762 31.449 48.2764 29.6045 49.1709 27.4462C50.0654 25.288 50.2998 22.9129 49.8444 20.6215C49.3891 18.33 48.2645 16.225 46.6128 14.5727C44.9612 12.9204 42.8566 11.795 40.5653 11.3388C38.274 10.8825 35.8989 11.116 33.7403 12.0096C31.5817 12.9032 29.7366 14.4169 28.4383 16.3592C27.1399 18.3014 26.4467 20.5851 26.4462 22.9214C26.449 26.0532 27.694 29.056 29.9081 31.2709C32.1222 33.4859 35.1245 34.732 38.2563 34.736ZM38.2563 13.3961C40.1409 13.3959 41.9833 13.9545 43.5505 15.0014C45.1176 16.0483 46.3391 17.5364 47.0605 19.2775C47.7819 21.0187 47.9708 22.9346 47.6032 24.7831C47.2357 26.6316 46.3282 28.3295 44.9957 29.6623C43.6631 30.995 41.9652 31.9026 40.1168 32.2704C38.2684 32.6382 36.3524 32.4495 34.6112 31.7284C32.87 31.0072 31.3817 29.7859 30.3347 28.2188C29.2876 26.6518 28.7287 24.8095 28.7287 22.9248C28.7311 20.3983 29.7356 17.9759 31.5217 16.1889C33.3078 14.4019 35.7297 13.3963 38.2563 13.3926V13.3961ZM81.89 54.1126C82.5953 53.1022 82.8842 51.8588 82.6966 50.641C82.5091 49.4231 81.8595 48.3243 80.8829 47.5728L78.6918 45.8824C78.412 45.6765 78.1804 45.4121 78.0133 45.1076C77.8461 44.803 77.7474 44.4657 77.724 44.1191L77.5425 42.1072C77.4383 40.8782 76.8624 39.7373 75.9355 38.9235C75.0086 38.1098 73.8027 37.6865 72.5706 37.7423L69.8094 37.8579C69.4623 37.8782 69.1149 37.8234 68.7909 37.6973C68.4669 37.5712 68.1738 37.3767 67.9317 37.1272L66.4991 35.705C65.6275 34.8342 64.4537 34.3331 63.222 34.3059C61.9902 34.2788 60.7955 34.7277 59.8864 35.5593L57.8398 37.4232C57.5871 37.6613 57.2862 37.8424 56.9575 37.9543C56.6287 38.0662 56.2799 38.1063 55.9343 38.0718L53.9201 37.8996C52.7225 37.8004 51.5314 38.1548 50.5829 38.8926C49.6343 39.6304 48.9976 40.6977 48.799 41.8829C45.1892 40.2068 41.2315 39.4163 37.2547 39.577C33.278 39.7378 29.397 40.8451 25.9341 42.807C22.4713 44.7689 19.5266 47.5288 17.3446 50.8574C15.1626 54.1859 13.8064 57.9871 13.3886 61.9451C13.3309 62.4979 13.3901 63.0566 13.5621 63.585C13.7342 64.1134 14.0153 64.5998 14.3874 65.0126C14.7594 65.4255 15.2141 65.7555 15.7218 65.9814C16.2296 66.2073 16.7792 66.324 17.3349 66.3239H48.8384V82.0583C48.8384 82.2709 48.8979 82.4793 49.01 82.6599C49.1222 82.8406 49.2826 82.9863 49.4731 83.0807C49.6636 83.1751 49.8768 83.2143 50.0884 83.194C50.3001 83.1738 50.5019 83.0948 50.671 82.9659L54.9954 79.6717L59.5338 82.9798C59.7294 83.122 59.9649 83.1989 60.2067 83.1995C60.3865 83.1999 60.5638 83.1571 60.7235 83.0746C60.9113 82.9794 61.0691 82.834 61.1793 82.6546C61.2895 82.4752 61.3479 82.2688 61.3479 82.0583V72.0832L62.5851 71.5745C62.9036 71.4346 63.2487 71.366 63.5964 71.3734C63.9441 71.3808 64.286 71.464 64.5982 71.6172L65.0537 71.8288V87.7459C65.054 87.9678 65.1187 88.1848 65.24 88.3706C65.3613 88.5564 65.534 88.7029 65.7371 88.7923C65.883 88.8558 66.0405 88.8885 66.1996 88.8883C66.4865 88.8888 66.7629 88.7805 66.9731 88.5854L71.2201 84.6714L75.6763 88.6027C75.8411 88.7481 76.0443 88.8428 76.2616 88.8755C76.4789 88.9082 76.701 88.8774 76.9012 88.7869C77.1015 88.6965 77.2714 88.5501 77.3904 88.3654C77.5095 88.1808 77.5728 87.9656 77.5726 87.7459V66.0707C78.7447 65.7372 79.7452 64.9688 80.3699 63.9225C80.9946 62.8762 81.1963 61.6308 80.9338 60.4408L80.3418 57.7456C80.26 57.4075 80.2527 57.0556 80.3203 56.7144C80.388 56.3732 80.5291 56.0508 80.7338 55.7695L81.89 54.1126ZM46.1952 58.4798L45.676 60.4304C45.3511 61.6497 45.5224 62.9481 46.1524 64.0414H17.3349C17.0989 64.0412 16.8656 63.9915 16.65 63.8954C16.4345 63.7994 16.2415 63.6591 16.0835 63.4837C15.9256 63.3084 15.8063 63.1018 15.7332 62.8774C15.6602 62.653 15.6351 62.4157 15.6595 62.181C16.0425 58.5249 17.3074 55.0164 19.3455 51.957C21.3837 48.8975 24.1341 46.3787 27.3606 44.6168C30.587 42.855 34.193 41.9028 37.8686 41.8421C41.5443 41.7813 45.1797 42.6139 48.4626 44.2682L48.3944 44.7805C48.3562 45.1259 48.2433 45.4589 48.0636 45.7564C47.8839 46.0539 47.6417 46.3087 47.3537 46.5033L45.7014 47.6595C44.6934 48.3682 43.9972 49.438 43.7573 50.6466C43.5174 51.8552 43.7524 53.1097 44.4134 54.1496L45.8922 56.4853C46.0845 56.7758 46.2112 57.1047 46.2635 57.4492C46.3158 57.7936 46.2925 58.1453 46.1952 58.4798ZM59.0689 79.8128L55.658 77.3257C55.4595 77.181 55.2197 77.1042 54.9741 77.1067C54.7285 77.1092 54.4902 77.1909 54.2948 77.3396L51.1208 79.7538V66.9517L51.4931 67.0674C51.827 67.1653 52.1356 67.3349 52.3972 67.5644C52.6588 67.7938 52.8672 68.0776 53.0078 68.3959L53.8646 70.2239C54.3085 71.187 55.062 71.9738 56.005 72.4589C56.9479 72.944 58.0262 73.0995 59.0678 72.9007L59.0689 79.8128ZM75.2901 85.2172L71.9589 82.2791C71.7475 82.0917 71.4738 81.9896 71.1913 81.9928C70.9087 81.996 70.6375 82.1043 70.4304 82.2964L67.342 85.142V72.777C68.3792 73.0251 69.4697 72.9199 70.4403 72.4779C71.411 72.036 72.2063 71.2826 72.7001 70.3373L73.9835 67.886C74.256 67.3483 74.7233 66.9348 75.2901 66.7297V85.2172ZM80.0169 52.8061L78.8606 54.463C78.4769 55.0029 78.2117 55.6178 78.0826 56.2675C77.9535 56.9171 77.9633 57.5868 78.1114 58.2324L78.7045 60.9334C78.8436 61.564 78.7342 62.2239 78.3991 62.7758C78.064 63.3278 77.529 63.7293 76.9054 63.8969L74.956 64.4241C74.3147 64.5899 73.716 64.8901 73.1995 65.3047C72.6831 65.7193 72.2606 66.2389 71.9601 66.8292L70.6766 69.2804C70.3782 69.8528 69.8705 70.2881 69.2593 70.4955C68.648 70.7029 67.9803 70.6665 67.3952 70.3939L65.5625 69.5394C64.9646 69.2546 64.313 69.0999 63.6509 69.0855C62.9887 69.0712 62.3311 69.1975 61.7214 69.4562L59.1626 70.5072C58.566 70.7537 57.8973 70.7607 57.2956 70.5268C56.694 70.293 56.2056 69.8362 55.932 69.2515L55.0741 67.4246C54.7991 66.8215 54.3992 66.2836 53.9009 65.8465C53.4026 65.4094 52.8172 65.083 52.1834 64.889L49.5495 64.053C48.9338 63.8582 48.4169 63.4336 48.1063 62.8674C47.7958 62.3012 47.7155 61.6371 47.8821 61.0132L48.4001 59.0603C48.5765 58.4221 48.6155 57.7538 48.5147 57.0995C48.4138 56.4452 48.1754 55.8197 47.8151 55.2643L46.3362 52.9263C45.993 52.3818 45.8723 51.7261 45.9991 51.0951C46.1258 50.464 46.4904 49.9059 47.0173 49.5361L48.6672 48.3741C49.2134 47.9987 49.6738 47.5117 50.0178 46.9453C50.3618 46.3788 50.5817 45.7458 50.6629 45.088L51.0295 42.3488C51.1101 41.7458 51.4067 41.1924 51.8642 40.7914C52.3218 40.3904 52.9093 40.1689 53.5177 40.1681C53.5883 40.1681 53.6611 40.1681 53.7328 40.1774L55.7482 40.3485C56.407 40.4112 57.0715 40.3335 57.6981 40.1206C58.3247 39.9078 58.8991 39.5646 59.3834 39.1136L61.4289 37.2509C61.9049 36.8131 62.5318 36.5765 63.1784 36.5905C63.8249 36.6045 64.441 36.8681 64.8976 37.3261L66.3303 38.7506C66.7936 39.2249 67.3534 39.5943 67.9717 39.8337C68.5901 40.073 69.2527 40.1768 69.9147 40.1381L72.677 40.0224C73.3204 40.0009 73.9479 40.2253 74.4318 40.6499C74.9158 41.0746 75.2198 41.6676 75.282 42.3084L75.4624 44.3203C75.5154 44.9803 75.7077 45.6217 76.0266 46.202C76.3455 46.7824 76.7837 47.2886 77.3124 47.6873L79.5093 49.3777C80.0184 49.7744 80.3551 50.3518 80.4497 50.9902C80.5442 51.6286 80.3892 52.2789 80.0169 52.8061ZM63.2049 40.1254C60.5309 40.1267 57.9174 40.9209 55.6947 42.4075C53.4721 43.8941 51.7401 46.0063 50.7178 48.4771C49.6954 50.9479 49.4287 53.6664 49.9512 56.2888C50.4737 58.9112 51.762 61.3198 53.6533 63.2101C55.5445 65.1004 57.9538 66.3875 60.5765 66.9086C63.1992 67.4298 65.9175 67.1616 68.3878 66.138C70.8581 65.1144 72.9694 63.3814 74.4548 61.158C75.9403 58.9345 76.7331 56.3206 76.7331 53.6467C76.7291 50.0606 75.3023 46.6227 72.766 44.0876C70.2296 41.5525 66.7909 40.1275 63.2049 40.1254ZM63.2049 64.8843C60.9823 64.8843 58.8096 64.2253 56.9616 62.9904C55.1135 61.7556 53.6732 60.0005 52.8226 57.9471C51.9721 55.8937 51.7495 53.6342 52.1831 51.4543C52.6167 49.2744 53.687 47.272 55.2586 45.7004C56.8303 44.1288 58.8326 43.0585 61.0125 42.6249C63.1924 42.1913 65.4519 42.4138 67.5054 43.2644C69.5588 44.1149 71.3139 45.5553 72.5487 47.4033C73.7835 49.2514 74.4426 51.424 74.4426 53.6467C74.4395 56.6261 73.2546 59.4827 71.1477 61.5895C69.0409 63.6963 66.1844 64.8813 63.2049 64.8843ZM66.358 50.3617L64.2212 46.183C64.1183 45.9965 63.9678 45.8407 63.785 45.7314C63.6021 45.6221 63.3936 45.5633 63.1806 45.5609C62.9666 45.5656 62.7581 45.6302 62.5789 45.7473C62.3997 45.8644 62.2568 46.0293 62.1666 46.2235L60.357 50.1362L55.725 50.8786C55.5134 50.9121 55.3154 51.0046 55.1539 51.1454C54.9923 51.2863 54.8737 51.4697 54.8115 51.6748C54.7494 51.88 54.7463 52.0984 54.8025 52.3052C54.8588 52.512 54.9721 52.6988 55.1296 52.8442L58.2954 55.7799L57.5681 60.4154C57.535 60.6269 57.562 60.8435 57.646 61.0405C57.73 61.2374 57.8677 61.4068 58.0433 61.5293C58.2189 61.6518 58.4255 61.7224 58.6393 61.7332C58.8532 61.7439 59.0657 61.6944 59.2528 61.5902L63.0153 59.48L67.2021 61.6029C67.393 61.6998 67.6073 61.7411 67.8205 61.722C68.0337 61.7029 68.2373 61.6242 68.4079 61.495C68.5785 61.3657 68.7094 61.191 68.7855 60.9909C68.8615 60.7908 68.8798 60.5734 68.8382 60.3634L68.001 56.1349L71.3126 52.8095C71.4637 52.658 71.5692 52.4669 71.617 52.2583C71.6647 52.0496 71.6528 51.8317 71.5826 51.6295C71.5125 51.4273 71.3868 51.2489 71.2201 51.1147C71.0533 50.9804 70.8522 50.8958 70.6396 50.8705L66.358 50.3617ZM65.9545 54.9579C65.8221 55.0902 65.7243 55.2531 65.6699 55.4322C65.6154 55.6112 65.6059 55.801 65.6423 55.9846L66.1418 58.5099L63.5044 57.1675C63.3375 57.0834 63.1525 57.0414 62.9657 57.0452C62.7789 57.049 62.5958 57.0986 62.4325 57.1894L60.1859 58.444L60.6484 55.5244C60.6779 55.3397 60.6617 55.1506 60.6012 54.9737C60.5408 54.7967 60.4379 54.6372 60.3015 54.5092L58.4122 52.7598L61.3306 52.2915C61.5154 52.2621 61.6901 52.1876 61.8393 52.0747C61.9886 51.9618 62.1077 51.8139 62.1862 51.644L63.2673 49.3072L64.6132 51.9389C64.6981 52.1056 64.8229 52.2489 64.9763 52.3559C65.1298 52.463 65.3073 52.5307 65.4931 52.5528L68.0508 52.8581L65.9545 54.9579Z" fill="#171717"/>
</svg>
