<svg width="100" height="100" viewBox="0 0 100 100" fill="none" xmlns="http://www.w3.org/2000/svg">
<path fill-rule="evenodd" clip-rule="evenodd" d="M56.0195 47.8889H55.788L54.3454 52.0475C54.2119 52.4304 53.8468 52.6797 53.4639 52.6797H53.3125C53.0631 53.3476 52.7515 54.0511 52.3775 54.7991C51.9144 55.7252 51.3534 56.7047 50.6945 57.7288C50.4184 58.1651 49.8307 58.2898 49.4033 58.0137C49.2786 57.9336 49.1806 57.8356 49.1094 57.7199C48.4504 56.6869 47.8983 55.7163 47.4531 54.808C47.0969 54.0689 46.7941 53.3654 46.5537 52.6886H46.5448C46.1085 52.6886 45.7434 52.3859 45.6365 51.9852L44.2117 47.8978H43.9802C43.6062 47.8978 43.2767 47.6752 43.1254 47.3546C42.7424 46.6601 42.3863 45.9477 42.0568 45.2175C41.5848 45.0483 41.104 44.9058 40.6231 44.7901C40.543 45.3689 40.3916 46.0011 40.1422 46.6868C39.786 47.693 39.2161 48.8328 38.3969 50.1062C38.1208 50.5426 37.5331 50.6672 37.1057 50.3912C36.981 50.311 36.8831 50.2131 36.8118 50.0973C36.0104 48.8507 35.4672 47.7197 35.1288 46.7135C34.8973 46.0367 34.7637 45.4045 34.7014 44.8346C34.1137 44.9682 33.526 45.1462 32.9293 45.36C32.8403 45.3867 32.7512 45.4045 32.6533 45.4134C32.1368 45.4401 31.7005 45.0394 31.6738 44.514C31.6738 44.3893 31.6648 44.2469 31.6559 44.0777C31.6559 43.8372 31.6559 43.6948 31.6559 43.6502C31.6559 40.5781 32.4129 37.6751 33.7575 35.1194C35.0754 32.6083 36.9632 30.4444 39.2428 28.797C39.3319 27.7284 39.4744 26.6776 39.6703 25.6447C36.892 27.2832 34.5411 29.5539 32.8225 32.261C30.81 35.4133 29.6524 39.1622 29.6524 43.1872C29.6524 47.2122 30.8367 51.0323 32.8848 54.2025C34.9953 57.4794 38.0318 60.1064 41.6115 61.727C41.7006 61.7716 41.7896 61.825 41.8698 61.8962C42.2438 62.2524 42.2705 62.8401 41.9143 63.2141C41.7629 63.3833 41.6293 63.5792 41.5492 63.7929C41.4691 63.9889 41.4245 64.2204 41.4245 64.4608C41.4245 64.9595 41.6293 65.4136 41.9588 65.7431C42.2883 66.0726 42.7424 66.2774 43.2411 66.2774H56.7497C57.2484 66.2774 57.7026 66.0726 58.032 65.7431C58.3615 65.4136 58.5663 64.9595 58.5663 64.4608C58.5663 64.2204 58.5218 63.9978 58.4417 63.7929C58.3615 63.597 58.2547 63.4189 58.1211 63.2587C58.032 63.1785 57.9608 63.0717 57.9074 62.9559C57.6936 62.4839 57.9074 61.9318 58.3793 61.7181C61.9591 60.0974 64.9956 57.4616 67.106 54.1935C69.1542 51.0234 70.3385 47.2389 70.3385 43.1783C70.3385 39.1177 69.172 35.4044 67.1595 32.2521C65.4319 29.545 63.0811 27.2743 60.3117 25.6358C60.5076 26.6687 60.6501 27.7195 60.7391 28.7881C63.0187 30.4444 64.9066 32.6083 66.2245 35.1105C67.5691 37.6573 68.326 40.5603 68.326 43.6413C68.326 43.6859 68.326 43.8283 68.326 44.0688C68.326 44.238 68.3171 44.3804 68.3082 44.5051C68.3082 44.6298 68.2726 44.7544 68.2102 44.8791C67.9876 45.3422 67.4266 45.5381 66.9636 45.3065C66.4204 45.0394 65.8594 44.8435 65.2806 44.701C65.2093 45.2798 65.0579 45.9299 64.8086 46.6334C64.4524 47.6574 63.8825 48.815 63.0454 50.1062C62.7694 50.5426 62.1817 50.6672 61.7542 50.3912C61.6296 50.311 61.5316 50.2131 61.4604 50.0973C60.659 48.8596 60.1247 47.7376 59.7863 46.7402C59.5548 46.0723 59.4212 45.449 59.3588 44.8791C58.8869 44.986 58.406 45.1106 57.9252 45.2442C57.5957 45.9744 57.2306 46.6957 56.8477 47.3903C56.6785 47.7019 56.3579 47.88 56.0284 47.88L56.0195 47.8889ZM59.1629 72.9916C59.2342 73.054 59.2965 73.1252 59.3588 73.1875C60.0356 73.9088 60.4541 74.8884 60.4541 75.9035C60.4541 76.9187 60.0356 77.8448 59.3678 78.5215C59.1184 78.7709 58.8335 78.9846 58.5218 79.1538L55.1647 87.1681C55.0133 87.5243 54.666 87.7469 54.3009 87.7469H45.2002C44.7727 87.7469 44.4166 87.462 44.3008 87.0702L41.2732 79.0291C41.0416 78.8777 40.8279 78.7085 40.632 78.5126C39.9641 77.8448 39.5456 76.9187 39.5456 75.8946C39.5456 74.8706 39.9641 73.8999 40.6409 73.1786C40.7032 73.1074 40.7745 73.0451 40.8368 72.9827C40.7656 72.9204 40.6943 72.8581 40.632 72.7957C39.9641 72.1279 39.5456 71.2018 39.5456 70.1777C39.5456 69.1536 39.9641 68.183 40.6409 67.4617C40.7032 67.3905 40.7745 67.3282 40.8368 67.2658C40.7656 67.2035 40.6943 67.1412 40.632 67.0788C39.9641 66.411 39.5456 65.4849 39.5456 64.4608C39.5456 63.9889 39.6347 63.5347 39.8039 63.1073C39.8217 63.0628 39.8395 63.0093 39.8662 62.9648C36.3755 61.1749 33.428 58.4857 31.3087 55.2087C29.0735 51.7358 27.7734 47.6129 27.7734 43.1783C27.7734 38.7437 29.0468 34.7009 31.2463 31.2458C33.4369 27.8086 36.5447 25.0124 40.2224 23.2137C40.632 21.6642 41.1574 20.1593 41.7807 18.7078C43.5528 14.5849 46.1441 10.8983 49.3498 7.85284C49.7149 7.50555 50.2848 7.51446 50.641 7.85284C53.8468 10.8983 56.4381 14.5849 58.2101 18.7078C58.8335 20.1593 59.3589 21.6642 59.7685 23.2137C63.4462 25.0124 66.554 27.8086 68.7445 31.2458C70.944 34.7009 72.2174 38.7882 72.2174 43.1783C72.2174 47.5684 70.9173 51.7358 68.6822 55.2087C66.5718 58.4857 63.6154 61.1749 60.1247 62.9648C60.1425 63.0093 60.1692 63.0628 60.187 63.1073C60.3562 63.5347 60.4452 63.9889 60.4452 64.4608C60.4452 65.476 60.0267 66.4021 59.3588 67.0788C59.2965 67.1412 59.2253 67.2124 59.154 67.2658C59.2253 67.3282 59.2876 67.3994 59.3499 67.4617C60.0267 68.183 60.4452 69.1626 60.4452 70.1777C60.4452 71.1929 60.0267 72.119 59.3588 72.7957C59.2965 72.8581 59.2253 72.9293 59.154 72.9827L59.1629 72.9916ZM56.3045 79.599H43.4905L45.8502 85.868H53.6865L56.3045 79.599ZM43.25 73.891C42.7781 73.891 42.3328 74.1225 42.0033 74.4698C41.6472 74.8527 41.4245 75.3692 41.4245 75.9035C41.4245 76.4022 41.6293 76.8563 41.9588 77.1858C42.2883 77.5153 42.7424 77.7201 43.2411 77.7201H56.7497C57.2484 77.7201 57.7026 77.5153 58.032 77.1858C58.3615 76.8563 58.5663 76.4022 58.5663 75.9035C58.5663 75.3692 58.3437 74.8527 57.9875 74.4698C57.658 74.1225 57.2217 73.891 56.7408 73.891H43.2322H43.25ZM43.25 68.1741C42.7781 68.1741 42.3328 68.4056 42.0033 68.7529C41.6472 69.1358 41.4245 69.6523 41.4245 70.1866C41.4245 70.6853 41.6293 71.1394 41.9588 71.4689C42.2883 71.7984 42.7424 72.0032 43.2411 72.0032H56.7497C57.2484 72.0032 57.7026 71.7984 58.032 71.4689C58.3615 71.1394 58.5663 70.6853 58.5663 70.1866C58.5663 69.6523 58.3437 69.1358 57.9875 68.7529C57.658 68.4056 57.2217 68.1741 56.7408 68.1741H43.2322H43.25ZM38.7798 44.5051C38.7264 44.9592 38.5928 45.4757 38.388 46.0634C38.201 46.5888 37.9517 47.1498 37.6222 47.7643C37.3105 47.1765 37.079 46.6244 36.9098 46.1169C36.7139 45.5203 36.5981 44.9949 36.5625 44.5229C36.9899 44.4784 37.4085 44.4606 37.827 44.4606C38.1476 44.4606 38.4681 44.4695 38.7798 44.4962V44.5051ZM63.4195 44.4517C63.366 44.9058 63.2414 45.4312 63.0365 46.0189C62.8495 46.5532 62.5913 47.132 62.2529 47.7643C61.9502 47.1855 61.7186 46.6423 61.5494 46.1436C61.3446 45.547 61.2378 45.0216 61.1932 44.5585C61.6652 44.4962 62.1283 44.4606 62.5735 44.4517C62.8584 44.4517 63.1345 44.4517 63.4105 44.4517H63.4195ZM53.8111 47.8889L52.796 50.8008H47.2038L46.1886 47.8889H53.8022H53.8111ZM51.2911 52.6797C51.113 53.0894 50.9171 53.5168 50.6945 53.962C50.4629 54.4251 50.1958 54.9148 49.9019 55.4224C49.617 54.9237 49.3587 54.4429 49.1361 53.9798C48.9135 53.5257 48.7265 53.0983 48.5573 52.6797H51.2911ZM41.1485 42.9913C40.0621 42.733 38.949 42.5995 37.827 42.5995C36.4289 42.5995 35.0042 42.7954 33.5527 43.205C33.6239 40.6048 34.2918 38.1649 35.4316 36.0099C36.3755 34.22 37.6311 32.6261 39.136 31.2992C39.136 31.415 39.136 31.5397 39.136 31.6554C39.136 34.4605 39.4922 37.1942 40.1511 39.7944C40.4272 40.8808 40.7656 41.9494 41.1485 42.9913ZM60.8638 31.2903C62.3687 32.6172 63.6332 34.2111 64.5682 36.001C65.6902 38.1292 66.358 40.5425 66.4382 43.0981C65.1915 42.6974 63.8825 42.546 62.5379 42.5817C61.3268 42.6173 60.0801 42.7954 58.8157 43.0892C59.2164 42.0117 59.5637 40.9165 59.8486 39.7944C60.5165 37.1942 60.8638 34.4605 60.8638 31.6554C60.8638 31.5397 60.8638 31.415 60.8638 31.2992V31.2903ZM47.373 46.01H44.5412C43.437 43.9174 42.5733 41.6734 41.9677 39.3225C41.3444 36.8648 41.006 34.3002 41.006 31.6465C41.006 27.3099 41.8965 23.1959 43.4994 19.4558C43.7131 18.9572 43.9357 18.4674 44.1761 17.9865C45.031 17.6214 45.9304 17.3365 46.8565 17.1406C47.8627 16.9269 48.9135 16.8111 49.991 16.8111C51.0685 16.8111 52.1192 16.9269 53.1255 17.1406C54.0516 17.3365 54.951 17.6303 55.8058 17.9865C56.0463 18.4674 56.2689 18.9572 56.4826 19.4558C58.0855 23.1959 58.9759 27.3188 58.9759 31.6465C58.9759 34.3002 58.6465 36.8737 58.0142 39.3225C57.4176 41.6734 56.5449 43.9085 55.4407 46.01H52.609V37.782C52.609 37.2655 52.1905 36.847 51.674 36.847H48.2991C47.7826 36.847 47.3641 37.2655 47.3641 37.782V46.01H47.373ZM50.7479 46.01H49.2519V38.717H50.7479V46.01ZM49.9999 20.2929C51.0952 20.2929 52.0836 20.7381 52.796 21.4505C53.5084 22.1629 53.9536 23.1513 53.9536 24.2466C53.9536 25.3419 53.5084 26.3304 52.796 27.0427C52.0836 27.7551 51.0952 28.2004 49.9999 28.2004C48.9046 28.2004 47.9162 27.7551 47.2038 27.0427C46.4914 26.3304 46.0461 25.3419 46.0461 24.2466C46.0461 23.1513 46.4914 22.1629 47.2038 21.4505C47.9162 20.7381 48.9046 20.2929 49.9999 20.2929ZM51.4692 22.7773C51.8432 23.1513 52.0747 23.6767 52.0747 24.2466C52.0747 24.8165 51.8432 25.3419 51.4692 25.7159C51.0952 26.0899 50.5698 26.3214 49.9999 26.3214C49.43 26.3214 48.9046 26.0899 48.5306 25.7159C48.1566 25.3419 47.9251 24.8165 47.9251 24.2466C47.9251 23.6767 48.1566 23.1513 48.5306 22.7773C48.9046 22.4033 49.43 22.1718 49.9999 22.1718C50.5698 22.1718 51.0952 22.4033 51.4692 22.7773ZM45.5386 15.5377C45.8502 15.4487 46.1619 15.3774 46.4736 15.3062C47.6134 15.0568 48.7977 14.9322 49.9999 14.9322C51.202 14.9322 52.3864 15.0657 53.5262 15.3062C53.8379 15.3774 54.1495 15.4487 54.4612 15.5377C53.1967 13.4718 51.7007 11.5662 49.9999 9.85643C48.2991 11.5662 46.803 13.4718 45.5386 15.5377Z" fill="#171717"/>
</svg>
