<svg width="21" height="20" viewBox="0 0 21 20" fill="none" xmlns="http://www.w3.org/2000/svg">
<g clip-path="url(#clip0_7755_44404)">
<path d="M13.5039 13.3333L10.1706 10M10.1706 10L6.83725 13.3333M10.1706 10L10.1706 17.5" stroke="#7533EA" stroke-width="1.67" stroke-linecap="round" stroke-linejoin="round"/>
<path fill-rule="evenodd" clip-rule="evenodd" d="M11.0237 2.29382C9.98573 1.83537 8.85727 1.61836 7.72328 1.65914C6.58929 1.69992 5.47933 1.99743 4.47696 2.52925C3.47459 3.06108 2.60592 3.81337 1.93636 4.72949C1.2668 5.64562 0.813799 6.7017 0.611451 7.81823C0.409102 8.93476 0.462682 10.0827 0.768159 11.1755C1.07364 12.2683 1.62305 13.2776 2.37504 14.1274C2.68065 14.4727 3.20836 14.5049 3.55371 14.1993C3.89906 13.8937 3.93128 13.366 3.62566 13.0206C3.04108 12.3601 2.61398 11.5754 2.37651 10.7259C2.13903 9.87636 2.09738 8.98401 2.25468 8.11603C2.41199 7.24806 2.76414 6.42708 3.28465 5.7149C3.80515 5.00272 4.48044 4.4179 5.25966 4.00447C6.03889 3.59104 6.90175 3.35977 7.7833 3.32806C8.66484 3.29636 9.54209 3.46506 10.349 3.82145C11.1559 4.17784 11.8715 4.71265 12.4418 5.3856C13.0121 6.05855 13.4223 6.85211 13.6416 7.70654C13.7363 8.0758 14.0691 8.33401 14.4503 8.33401H15.5003L15.501 8.33401C16.2092 8.33345 16.8992 8.55858 17.4707 8.97673C18.0423 9.39487 18.4658 9.98427 18.6797 10.6594C18.8936 11.3345 18.8868 12.0602 18.6603 12.7312C18.4338 13.4022 17.9993 13.9836 17.42 14.391C17.0428 14.6562 16.9521 15.1771 17.2173 15.5543C17.4826 15.9315 18.0034 16.0223 18.3807 15.757C19.2503 15.1455 19.9025 14.2727 20.2426 13.2654C20.5826 12.258 20.5928 11.1685 20.2717 10.155C19.9506 9.14147 19.3148 8.25663 18.4568 7.62889C17.5988 7.00128 16.5633 6.66331 15.5003 6.66401L14.9278 6.29554C14.6307 5.57522 14.2223 4.90357 13.7158 4.30588C12.9822 3.44022 12.0617 2.75227 11.0237 2.29382ZM14.928 6.29607L7.72328 1.65914L14.9278 6.29554C14.9279 6.29572 14.9279 6.2959 14.928 6.29607ZM14.928 6.29607L15.4997 6.66401L15.0686 6.66401C15.0249 6.54006 14.978 6.41738 14.928 6.29607Z" fill="#7533EA"/>
</g>
<defs>
<clipPath id="clip0_7755_44404">
<rect width="20" height="20" fill="white" transform="translate(0.5)"/>
</clipPath>
</defs>
</svg>
